<?xml version="1.0" encoding="utf-8"?>
<!-- Generator: Adobe Illustrator 19.0.0, SVG Export Plug-In . SVG Version: 6.00 Build 0)  -->
<!DOCTYPE svg PUBLIC "-//W3C//DTD SVG 1.1//EN" "http://www.w3.org/Graphics/SVG/1.1/DTD/svg11.dtd">
<svg version="1.1" id="Layer_1" xmlns="http://www.w3.org/2000/svg" xmlns:xlink="http://www.w3.org/1999/xlink" x="0px" y="0px"
	 viewBox="97 110.9 504.7 91.1" style="enable-background:new 97 110.9 504.7 91.1;" xml:space="preserve">
<style type="text/css">
	.st0{fill:#FFFFFF;}
	.st1{fill:#0E1131;}
	.st2{fill-rule:evenodd;clip-rule:evenodd;fill:#FFFFFF;}
	.st3{fill:none;stroke:#FFFFFF;stroke-width:1.4285;stroke-miterlimit:3.8637;}
</style>
<g id="XMLID_542_">
	<rect id="XMLID_244_" x="114.7" y="124.5" class="st0" width="98.1" height="63.4"/>
	<path id="XMLID_543_" d="M162.4,135.6l-1.8-1.5h2.5l0.7-2.2l0.9,2.2h2.3l-1.8,1.5l0.7,2.2l-2-1.3l-1.8,1.3L162.4,135.6L162.4,135.6
		z M173,138.2l-1.8-1.5h2.5l0.7-2.2l0.9,2.2l2.3,0.2l-1.8,1.3l0.7,2.4l-2-1.5l-2,1.3L173,138.2L173,138.2z M180.3,145.9l-1.8-1.3
		l2.3-0.2l0.9-2.2l0.7,2.2l2.5,0.2l-1.9,1.3l0.7,2.4l-2-1.3l-2,1.3L180.3,145.9L180.3,145.9z M184.4,156.5l-2-1.3l2.5-0.2l0.9-2.2
		l0.7,2.2l2.5,0.2l-1.8,1.3l0.7,2.4l-2-1.3l-2,1.3L184.4,156.5L184.4,156.5z M180.8,167.2l-1.8-1.5h2.5l0.7-2.4l0.9,2.4h2.3
		l-1.8,1.5l0.7,2.2l-2-1.3l-1.8,1.3L180.8,167.2L180.8,167.2z M173.7,174.7l-2-1.3l2.5-0.2l0.9-2.2l0.7,2.2l2.5,0.2l-1.8,1.3
		l0.7,2.4l-2-1.3l-2,1.3L173.7,174.7L173.7,174.7z M162.6,178.2l-2-1.5h2.5l0.9-2.4l0.7,2.4h2.5l-2,1.5l0.9,2.2l-2-1.3l-2,1.3
		L162.6,178.2L162.6,178.2z M151.5,175.1l-1.8-1.5h2.5l0.7-2.4l0.9,2.4h2.2l-1.8,1.5l0.7,2.2l-2-1.3l-1.9,1.3L151.5,175.1
		L151.5,175.1z M144.4,167.6l-2-1.5h2.5l0.7-2.4l0.9,2.4h2.5l-2,1.5l0.7,2.2l-2-1.3l-1.8,1.3L144.4,167.6L144.4,167.6z M140.4,156.8
		l-1.8-1.3l2.5-0.2l0.7-2.2l0.9,2.2l2.3,0.2l-1.8,1.3l0.7,2.2l-2-1.3l-1.8,1.3L140.4,156.8L140.4,156.8z M144.2,146.4l-1.8-1.3
		l2.3-0.2l0.9-2.2l0.7,2.2l2.5,0.2l-1.8,1.3l0.7,2.4l-2-1.3l-2,1.3L144.2,146.4L144.2,146.4z M151.2,138.4l-1.8-1.3l2.3-0.2l0.9-2.2
		l0.9,2.2l2.3,0.2l-1.8,1.3l0.7,2.4l-2-1.3l-2,1.3L151.2,138.4z"/>
</g>
<g id="XMLID_402_">
	<path id="XMLID_505_" class="st0" d="M295.7,143.1c0.3,0,1.9,0,1.9,0c4.5,0,8.1-3.7,8.1-8.1c0-4.5-3.7-8.1-8.1-8.1h-18.9
		c-1,0-1.8,0.8-1.8,1.8c0,0,0,18.9,0,26.3l-5-5c2-2.5,3.2-5.7,3.2-9.2c0-8.2-6.7-14.9-14.9-14.9c-8.2,0-14.9,6.7-14.9,14.9
		s6.7,14.9,14.9,14.9c3.5,0,6.6-1.2,9.2-3.2l5,5c-7.4,0-26.3,0-26.3,0c-1,0-1.8,0.8-1.8,1.8v25.3c0,1,0.8,1.8,1.8,1.8h30.7
		c1,0,1.8-0.8,1.8-1.8c0,0,0-14.9,0-20.9c4.8,4.8,22.2,22.2,22.2,22.2c0.5,0.5,1.3,0.7,2,0.4s1.1-0.9,1.1-1.7v-30.7
		c0-0.5-0.2-0.9-0.5-1.3C305.2,152.6,299.2,146.7,295.7,143.1z M280.4,130.5c3,0,17.1,0,17.1,0c2.5,0,4.5,2,4.5,4.5s-2,4.5-4.5,4.5
		c0,0-14.1,0-17.1,0C280.4,135.4,280.4,131.5,280.4,130.5z M260.1,152.1c-6.2,0-11.3-5.1-11.3-11.3s5.1-11.3,11.3-11.3
		c6.2,0,11.3,5.1,11.3,11.3c0,2.4-0.8,4.7-2.1,6.6l-7.4-7.4c-0.7-0.7-1.9-0.7-2.6,0c-0.7,0.7-0.7,1.9,0,2.6l7.4,7.4
		C264.8,151.3,262.5,152.1,260.1,152.1z M276.8,182.9c-3,0-24.1,0-27.1,0c0-1.3,0-5,0-9h18.9c1,0,1.8-0.8,1.8-1.8s-0.8-1.8-1.8-1.8
		h-18.9c0-4,0-7.7,0-9c3,0,24.1,0,27.1,0C276.8,164.1,276.8,180,276.8,182.9z M302.1,180.3c-4.7-4.7-20.7-20.7-21.6-21.6
		c0-0.7,0-7.8,0-15.5c1.7,0,5.3,0,10.1,0c0.9,0.9,10.6,10.6,11.6,11.6C302.1,155.9,302.1,174,302.1,180.3z"/>
	<path id="XMLID_502_" class="st0" d="M318,133.4c0,2.5-0.4,4.2-2.7,4.3l0,0l3.9,0.9v0.4l-5.3-1.4c-1.8-0.5-2-2-2-4.2
		c0-2.6,0.4-4.3,3.1-4.3S318,130.9,318,133.4z M317.7,133.4c0-2.6-0.4-4-2.7-4s-2.7,1.4-2.7,4c0,2.6,0.4,4,2.7,4
		S317.7,136.1,317.7,133.4z"/>
	<path id="XMLID_198_" class="st0" d="M322.6,137.4c1.7,0,2.6-0.5,2.6-2.5v-5.7h0.4v5.7c0,2.3-1.3,2.8-2.9,2.8
		c-1.6,0-2.9-0.5-2.9-2.8v-5.8h0.4v5.8C320.1,136.9,321,137.4,322.6,137.4z"/>
	<path id="XMLID_498_" class="st0" d="M332.6,137.7l-0.9-2.5H328l-0.8,2.5h-0.4l3-8.6h0.2l3,8.6H332.6z M328.1,134.9h3.5l-1.8-5.2
		L328.1,134.9z"/>
	<path id="XMLID_495_" class="st0" d="M334.5,137.7v-8.5h2.5c2.7,0,3.3,1.6,3.3,4.3s-0.6,4.3-3.3,4.3h-2.5V137.7z M334.8,137.4h2
		c2.4,0,2.9-1.3,2.9-3.9s-0.6-3.9-2.9-3.9h-2V137.4z"/>
	<path id="XMLID_492_" class="st0" d="M342.3,137.7H342v-8.5h2.7c2.1,0,2.6,0.8,2.6,2.3c0,1.2-0.4,2-1.8,2.2l2.1,4h-0.4l-2.1-3.9
		c-0.1,0-0.3,0-0.4,0h-2.3v3.9H342.3z M344.8,133.4c1.8,0,2.1-0.9,2.1-2c0-1.1-0.3-2-2.1-2h-2.5v3.9L344.8,133.4L344.8,133.4z"/>
	<path id="XMLID_489_" class="st0" d="M355,133.4c0,2.6-0.4,4.3-3.1,4.3c-2.7,0-3.1-1.7-3.1-4.3c0-2.6,0.4-4.3,3.1-4.3
		S355,130.9,355,133.4z M354.6,133.4c0-2.6-0.4-4-2.7-4c-2.3,0-2.7,1.4-2.7,4c0,2.6,0.4,4,2.7,4
		C354.2,137.4,354.6,136.1,354.6,133.4z"/>
	<path id="XMLID_486_" class="st0" d="M312,150.9v-8.5h2.5c2.7,0,3.3,1.6,3.3,4.3s-0.6,4.3-3.3,4.3H312V150.9z M312.4,150.6h2
		c2.4,0,2.9-1.3,2.9-3.9c0-2.6-0.6-3.9-2.9-3.9h-2V150.6z"/>
	<polygon id="XMLID_187_" class="st0" points="323.8,146.7 319.8,146.7 319.8,150.6 324.2,150.6 324.2,150.9 319.5,150.9 
		319.5,142.4 324.2,142.4 324.2,142.8 319.8,142.8 319.8,146.4 323.8,146.4 	"/>
	<path id="XMLID_482_" class="st0" d="M328.6,150.9h-0.4v-8.5h2.7c2.1,0,2.6,0.8,2.6,2.3c0,1.2-0.4,2-1.8,2.2l2.1,4h-0.4l-2.1-3.9
		c-0.1,0-0.3,0-0.4,0h-2.3L328.6,150.9L328.6,150.9z M331.1,146.7c1.8,0,2.1-0.9,2.1-2c0-1.1-0.3-2-2.1-2h-2.5v3.9L331.1,146.7
		L331.1,146.7z"/>
	<polygon id="XMLID_184_" class="st0" points="339.6,146.7 335.7,146.7 335.7,150.6 340,150.6 340,150.9 335.3,150.9 335.3,142.4 
		340,142.4 340,142.8 335.7,142.8 335.7,146.4 339.6,146.4 	"/>
	<polygon id="XMLID_183_" class="st0" points="345.9,146.7 342.1,146.7 342.1,150.9 341.7,150.9 341.7,142.4 346.3,142.4 
		346.3,142.8 342.1,142.8 342.1,146.4 345.9,146.4 	"/>
	<polygon id="XMLID_182_" class="st0" points="352.2,146.7 348.3,146.7 348.3,150.6 352.6,150.6 352.6,150.9 347.9,150.9 
		347.9,142.4 352.6,142.4 352.6,142.8 348.3,142.8 348.3,146.4 352.2,146.4 	"/>
	<path id="XMLID_476_" class="st0" d="M354.7,150.9h-0.4v-8.5h2.7c2.1,0,2.6,0.8,2.6,2.3c0,1.2-0.4,2-1.8,2.2l2.1,4h-0.4l-2.1-3.9
		c-0.1,0-0.3,0-0.4,0h-2.3L354.7,150.9L354.7,150.9z M357.2,146.7c1.8,0,2.1-0.9,2.1-2c0-1.1-0.3-2-2.1-2h-2.5v3.9L357.2,146.7
		L357.2,146.7z"/>
	<path id="XMLID_473_" class="st0" d="M365.7,146.7h-3.9v3.9h4.4v0.3h-4.7v-8.5h4.7v0.3h-4.4v3.6h3.9V146.7z M365.6,141.6l-1.6-2
		h-0.5l-1.6,2h0.3l1.6-1.6l1.6,1.6H365.6z"/>
	<polygon id="XMLID_177_" class="st0" points="373.3,150.9 368.1,143.2 368.2,150.9 367.8,150.9 367.8,142.4 368,142.4 373.1,150.1 
		373.1,142.4 373.5,142.4 373.5,150.9 	"/>
	<path id="XMLID_176_" class="st0" d="M375.2,146.7c0-2.7,0.8-4.3,3.3-4.3c1,0,1.6,0.1,2.1,0.3v0.4c-0.7-0.3-1.3-0.4-2.1-0.4
		c-2.1,0-2.9,1.3-2.9,4c0,2.7,0.8,4,2.9,4c0.8,0,1.4-0.1,2.1-0.4v0.4c-0.5,0.2-1.1,0.3-2.1,0.3C376,151,375.2,149.4,375.2,146.7z"/>
	<rect id="XMLID_175_" x="382.4" y="142.4" class="st0" width="0.4" height="8.5"/>
	<path id="XMLID_467_" class="st0" d="M390.2,150.9l-0.9-2.5h-3.7l-0.8,2.5h-0.4l3-8.6h0.2l3,8.6H390.2z M385.8,148.2h3.5l-1.8-5.2
		L385.8,148.2z"/>
	<polygon id="XMLID_172_" class="st0" points="316.3,159.9 312.4,159.9 312.4,163.8 316.7,163.8 316.7,164.2 312,164.2 312,155.7 
		316.7,155.7 316.7,156 312.4,156 312.4,159.6 316.3,159.6 	"/>
	<path id="XMLID_171_" class="st0" d="M321,155.6c1,0,1.6,0.1,2.1,0.3v0.4c-0.7-0.3-1.3-0.4-2.1-0.4c-1.9,0-2.4,0.9-2.4,1.9
		c0,1.4,0.6,1.6,2.4,1.8c1.8,0.2,2.6,0.4,2.6,2.2c0,1.1-0.6,2.4-3.1,2.4c-0.7,0-1.7-0.2-2.3-0.4v-0.3c0.5,0.2,1.2,0.4,2.3,0.4
		c2.1,0,2.7-0.9,2.7-2.1c0-1.4-0.4-1.7-2.3-1.9s-2.6-0.5-2.6-2.1C318.3,156.7,318.8,155.6,321,155.6z"/>
	<polygon id="XMLID_170_" class="st0" points="327.6,156 327.6,164.2 327.3,164.2 327.3,156 324.8,156 324.8,155.7 330.1,155.7 
		330.1,156 	"/>
	<path id="XMLID_461_" class="st0" d="M332,164.2h-0.4v-8.5h2.7c2.1,0,2.6,0.8,2.6,2.3c0,1.2-0.4,2-1.8,2.2l2.1,4h-0.4l-2.1-3.9
		c-0.1,0-0.3,0-0.4,0H332V164.2z M334.5,159.9c1.8,0,2.1-0.9,2.1-2c0-1.1-0.3-2-2.1-2H332v4H334.5z"/>
	<path id="XMLID_458_" class="st0" d="M344.3,164.2l-0.9-2.5h-3.7l-0.8,2.5h-0.4l3-8.6h0.2l3,8.6
		C344.7,164.2,344.3,164.2,344.3,164.2z M339.8,161.4h3.5l-1.8-5.2L339.8,161.4z"/>
	<polygon id="XMLID_165_" class="st0" points="347.6,156 347.6,164.2 347.2,164.2 347.2,156 344.7,156 344.7,155.7 350.1,155.7 
		350.1,156 	"/>
	<path id="XMLID_454_" class="st0" d="M355.9,159.9H352v3.9h4.4v0.3h-4.7v-8.5h4.7v0.3H352v3.6h3.9V159.9z M353.8,154.7l1.2-2h0.6
		l-1.5,2H353.8z"/>
	<path id="XMLID_162_" class="st0" d="M361,163.9c0.7,0,1.6-0.1,2.1-0.4v-3.3h-1.8v-0.3h2.2v3.9c-0.6,0.2-1.4,0.4-2.5,0.4
		c-2.5,0-3.3-1.6-3.3-4.3s0.8-4.3,3.3-4.3c1.1,0,1.8,0.2,2.3,0.4v0.4c-0.7-0.3-1.4-0.4-2.3-0.4c-2.1,0-2.9,1.3-2.9,4
		C358,162.6,358.9,163.9,361,163.9z"/>
	<rect id="XMLID_161_" x="365.5" y="155.7" class="st0" width="0.4" height="8.5"/>
	<path id="XMLID_160_" class="st0" d="M367.7,159.9c0-2.7,0.8-4.3,3.3-4.3c1,0,1.6,0.1,2.1,0.3v0.4c-0.7-0.3-1.3-0.4-2.1-0.4
		c-2.1,0-2.9,1.3-2.9,4c0,2.7,0.8,4,2.9,4c0.8,0,1.4-0.1,2.1-0.4v0.4c-0.5,0.2-1.1,0.3-2.1,0.3C368.5,164.2,367.7,162.7,367.7,159.9
		z"/>
	<path id="XMLID_448_" class="st0" d="M380.5,159.9c0,2.6-0.4,4.3-3.1,4.3s-3.1-1.7-3.1-4.3c0-2.6,0.4-4.3,3.1-4.3
		S380.5,157.3,380.5,159.9z M380.1,159.9c0-2.6-0.4-4-2.7-4c-2.3,0-2.7,1.4-2.7,4c0,2.6,0.4,4,2.7,4S380.1,162.5,380.1,159.9z"/>
	<polygon id="XMLID_157_" class="st0" points="317.5,177.4 312.3,169.7 312.4,177.4 312,177.4 312,168.9 312.2,168.9 317.4,176.6 
		317.3,168.9 317.7,168.9 317.7,177.4 	"/>
	<path id="XMLID_444_" class="st0" d="M325.1,177.4l-0.9-2.5h-3.7l-0.8,2.5h-0.4l3-8.6h0.2l3,8.6H325.1z M320.6,174.6h3.5l-1.8-5.2
		L320.6,174.6z"/>
	<path id="XMLID_154_" class="st0" d="M326.5,173.2c0-2.7,0.8-4.3,3.3-4.3c1,0,1.6,0.1,2.1,0.3v0.4c-0.7-0.3-1.3-0.4-2.1-0.4
		c-2.1,0-2.9,1.3-2.9,4s0.8,4,2.9,4c0.8,0,1.4-0.1,2.1-0.4v0.4c-0.5,0.2-1.1,0.3-2.1,0.3C327.2,177.5,326.5,175.9,326.5,173.2z"/>
	<rect id="XMLID_153_" x="333.6" y="168.9" class="st0" width="0.4" height="8.5"/>
	<path id="XMLID_439_" class="st0" d="M342.1,173.2c0,2.6-0.4,4.3-3.1,4.3s-3.1-1.7-3.1-4.3c0-2.6,0.4-4.3,3.1-4.3
		C341.7,168.8,342.1,170.6,342.1,173.2z M341.7,173.2c0-2.6-0.4-4-2.7-4s-2.7,1.4-2.7,4c0,2.6,0.4,4,2.7,4
		C341.3,177.1,341.7,175.8,341.7,173.2z"/>
	<polygon id="XMLID_150_" class="st0" points="349.4,177.4 344.2,169.7 344.3,177.4 343.9,177.4 343.9,168.9 344.1,168.9 
		349.3,176.6 349.2,168.9 349.6,168.9 349.6,177.4 	"/>
	<path id="XMLID_435_" class="st0" d="M357,177.4l-0.9-2.5h-3.7l-0.8,2.5h-0.4l3-8.6h0.2l3,8.6H357z M352.5,174.6h3.5l-1.8-5.2
		L352.5,174.6z"/>
	<polygon id="XMLID_147_" class="st0" points="359.2,177.1 363.3,177.1 363.3,177.4 358.9,177.4 358.9,168.9 359.2,168.9 	"/>
	<path id="XMLID_431_" class="st0" d="M312.4,185.9H312v-3.8h1.2c1,0,1.3,0.5,1.3,1.1s-0.3,1.1-1.3,1.1h-0.8V185.9z M312.4,184.1
		h0.8c0.7,0,0.9-0.4,0.9-0.8c0-0.4-0.1-0.8-0.9-0.8h-0.8V184.1z"/>
	<path id="XMLID_428_" class="st0" d="M316.6,186c-1.2,0-1.4-1-1.4-2s0.2-2,1.4-2c1.3,0,1.4,1,1.4,2S317.8,186,316.6,186z
		 M316.6,182.4c-0.9,0-1,0.7-1,1.6s0.1,1.6,1,1.6s1-0.7,1-1.6S317.5,182.4,316.6,182.4z"/>
	<path id="XMLID_425_" class="st0" d="M319.3,185.9h-0.4v-3.8h1.2c0.9,0,1.2,0.4,1.2,1.1c0,0.5-0.2,0.9-0.7,1l0.9,1.7H321l-0.8-1.7
		c-0.1,0-0.1,0-0.2,0h-0.8L319.3,185.9L319.3,185.9z M319.3,183.9h0.9c0.7,0,0.8-0.3,0.8-0.7c0-0.4-0.1-0.7-0.8-0.7h-0.9V183.9z"/>
	<polygon id="XMLID_140_" class="st0" points="323.4,182.5 323.4,185.9 323.1,185.9 323.1,182.5 322,182.5 322,182.1 324.5,182.1 
		324.5,182.5 	"/>
	<path id="XMLID_139_" class="st0" d="M327.6,184.7v-2.6h0.4v2.6c0,1.1-0.9,1.2-1.3,1.2c-0.5,0-1.3-0.2-1.3-1.2v-2.6h0.4v2.6
		c0,0.9,0.6,1,1,1C326.9,185.7,327.6,185.6,327.6,184.7z"/>
	<path id="XMLID_138_" class="st0" d="M330.3,186c-1.1,0-1.5-0.9-1.5-2s0.4-2,1.5-2c0.5,0,0.9,0.1,1.1,0.2v0.4
		c-0.4-0.2-0.7-0.2-1.1-0.2c-0.8,0-1.1,0.7-1.1,1.6s0.3,1.6,1.1,1.6c0.3,0,0.6,0,0.8-0.1v-1.3h-0.8v-0.3h1.1v1.8
		C331.2,185.9,330.8,186,330.3,186z"/>
	<path id="XMLID_419_" class="st0" d="M334.8,185.9l-0.4-1.1h-1.5l-0.4,1.1h-0.4l1.3-3.9h0.3l1.3,3.9H334.8z M333,184.6h1.3
		l-0.6-1.9L333,184.6z"/>
	<polygon id="XMLID_135_" class="st0" points="336.3,185.6 338,185.6 338,185.9 335.9,185.9 335.9,182.1 336.3,182.1 	"/>
	<path id="XMLID_134_" class="st0" d="M339.9,182.7c-0.3,0-0.5,0-1,0.2v-0.7c0.3-0.1,0.6-0.2,1-0.2c1.1,0,1.2,0.6,1.2,1.1
		c0,0.3-0.2,0.6-0.5,1l-1.1,1.2h1.6v0.6h-2.5v-0.5l1.6-2c0.1-0.1,0.2-0.2,0.2-0.4C340.5,182.9,340.4,182.7,339.9,182.7z"/>
	<path id="XMLID_414_" class="st0" d="M341.7,184c0-1.6,0.3-2,1.3-2c0.9,0,1.3,0.4,1.3,2s-0.3,2-1.3,2
		C342.1,186,341.7,185.6,341.7,184z M342.4,184c0,1.1,0.1,1.4,0.6,1.4s0.6-0.3,0.6-1.4s-0.1-1.4-0.6-1.4
		C342.5,182.7,342.4,183,342.4,184z"/>
	<path id="XMLID_411_" class="st0" d="M344.9,184c0-1.6,0.3-2,1.3-2c0.9,0,1.3,0.4,1.3,2s-0.3,2-1.3,2S344.9,185.6,344.9,184z
		 M345.5,184c0,1.1,0.1,1.4,0.6,1.4s0.6-0.3,0.6-1.4s-0.1-1.4-0.6-1.4C345.7,182.7,345.5,183,345.5,184z"/>
	<polygon id="XMLID_129_" class="st0" points="348.3,185.9 349.8,182.8 347.9,182.8 347.9,182.1 350.5,182.1 350.5,182.6 349,185.9 
			"/>
	<path id="XMLID_128_" class="st0" d="M350.9,185.2c0.2,0,0.4,0.2,0.4,0.4c0,0.2-0.2,0.4-0.4,0.4s-0.4-0.2-0.4-0.4
		S350.7,185.2,350.9,185.2z"/>
	<path id="XMLID_127_" class="st0" d="M353,182.7c-0.3,0-0.5,0-1,0.2v-0.7c0.3-0.1,0.6-0.2,1-0.2c1.1,0,1.2,0.6,1.2,1.1
		c0,0.3-0.2,0.6-0.5,1l-1.1,1.2h1.6v0.6h-2.5v-0.5l1.6-2c0.1-0.1,0.2-0.2,0.2-0.4C353.6,182.9,353.5,182.7,353,182.7z"/>
	<path id="XMLID_405_" class="st0" d="M354.9,184c0-1.6,0.3-2,1.3-2c0.9,0,1.3,0.4,1.3,2s-0.3,2-1.3,2
		C355.2,186,354.9,185.6,354.9,184z M355.5,184c0,1.1,0.1,1.4,0.6,1.4s0.6-0.3,0.6-1.4s-0.1-1.4-0.6-1.4
		C355.7,182.7,355.5,183,355.5,184z"/>
	<polygon id="XMLID_124_" class="st0" points="358,185.3 358.7,185.3 358.7,182.7 358,182.8 358,182.3 359.1,182.1 359.4,182.1 
		359.4,185.3 360.2,185.3 360.2,185.9 358,185.9 	"/>
	<path id="XMLID_123_" class="st0" d="M360.8,182.9v-0.7c0.2-0.1,0.8-0.1,1.1-0.1c1.1,0,1.3,0.5,1.3,1.1c0,0.2-0.1,0.6-0.3,0.7
		c0.3,0.2,0.4,0.6,0.4,0.9c0,0.6-0.3,1.2-1.4,1.2c-0.4,0-0.9-0.1-1.1-0.2v-0.7c0.3,0.1,0.7,0.2,1.1,0.2c0.6,0,0.7-0.3,0.7-0.6
		c0-0.3-0.1-0.5-0.6-0.5h-0.7v-0.7h0.7c0.4,0,0.5-0.3,0.5-0.5c0-0.2-0.1-0.5-0.6-0.5C361.6,182.7,361.1,182.8,360.8,182.9z"/>
</g>
<g id="XMLID_387_">
	<rect id="XMLID_122_" x="-616.2" y="144.1" class="st1" width="98.1" height="63.4"/>
	<path id="XMLID_388_" class="st0" d="M-568.5,155.1l-1.8-1.5h2.5l0.7-2.2l0.9,2.2h2.3l-1.8,1.5l0.7,2.2l-2-1.3l-1.8,1.3
		L-568.5,155.1L-568.5,155.1z M-557.8,157.8l-1.8-1.5h2.5l0.7-2.2l0.9,2.2l2.3,0.2l-1.8,1.3l0.7,2.4l-2-1.5l-2,1.3L-557.8,157.8
		L-557.8,157.8z M-550.6,165.5l-1.8-1.3l2.3-0.2l0.9-2.2l0.7,2.2l2.5,0.2l-1.8,1.3l0.7,2.4l-2-1.3l-2,1.3L-550.6,165.5L-550.6,165.5
		z M-546.5,176.1l-2-1.3l2.5-0.2l0.9-2.2l0.7,2.2l2.5,0.2l-1.8,1.3l0.7,2.4l-2-1.3l-2,1.3L-546.5,176.1L-546.5,176.1z M-550.1,186.7
		l-1.8-1.5h2.5l0.7-2.4l0.9,2.4h2.3l-1.8,1.5l0.7,2.2l-2-1.3l-1.8,1.3L-550.1,186.7L-550.1,186.7z M-557.2,194.2l-2-1.3l2.5-0.2
		l0.9-2.2l0.7,2.2l2.5,0.2l-1.8,1.3l0.7,2.4l-2-1.3l-2,1.3L-557.2,194.2L-557.2,194.2z M-568.3,197.8l-2-1.5h2.5l0.9-2.4l0.7,2.4
		h2.5l-2,1.5l0.9,2.2l-2-1.3l-2,1.3L-568.3,197.8L-568.3,197.8z M-579.4,194.7l-1.8-1.5h2.5l0.7-2.4l0.9,2.4h2.3l-1.8,1.5l0.7,2.2
		l-2-1.3l-1.8,1.3L-579.4,194.7L-579.4,194.7z M-586.4,187.2l-2-1.5h2.5l0.7-2.4l0.9,2.4h2.5l-2,1.5l0.7,2.2l-2-1.3l-1.8,1.3
		L-586.4,187.2L-586.4,187.2z M-590.5,176.3l-1.8-1.3l2.5-0.2l0.7-2.2l0.9,2.2l2.3,0.2l-1.8,1.3l0.7,2.2l-2-1.3l-1.8,1.3
		L-590.5,176.3L-590.5,176.3z M-586.7,166l-1.8-1.3l2.3-0.2l0.9-2.2l0.7,2.2l2.5,0.2l-1.8,1.3l0.7,2.4l-2-1.3l-2,1.3L-586.7,166
		L-586.7,166z M-579.6,158l-1.8-1.3l2.3-0.2l0.9-2.2l0.9,2.2l2.3,0.2l-1.8,1.3l0.7,2.4l-2-1.3l-2,1.3L-579.6,158z"/>
</g>
<g id="XMLID_356_">
	<path id="XMLID_109_" class="st1" d="M-307.3,156.3v22.4c13.7,3.3,26.6-17,37.7-12.9v-4.2C-278.3,154.8-297.7,154-307.3,156.3z"/>
	<path id="XMLID_108_" class="st1" d="M-269.6,195.2v-22.4c-13.7-3.3-26.6,17-37.7,12.9v4.2C-298.7,196.8-279.2,197.6-269.6,195.2z"
		/>
	<rect id="XMLID_107_" x="-262.1" y="164.6" class="st1" width="2" height="16.8"/>
	<path id="XMLID_106_" class="st1" d="M-256,181.4v-16.7h2.3l5.6,10.7c0.4,0.7,0.9,1.9,1.6,3.5c-0.1-1-0.1-2.7-0.2-5.1l-0.1-9.1h2
		v16.7h-2.1l-5.4-10.3c-0.9-1.8-1.6-3.1-1.9-4c0.1,1.5,0.2,3.1,0.2,4.6l0.1,9.7H-256z"/>
	<polygon id="XMLID_105_" class="st1" points="-233.8,181.4 -233.8,164.6 -231.8,164.6 -231.8,179.7 -225.1,179.7 -225.4,181.4 	"/>
	<polygon id="XMLID_104_" class="st1" points="-222.6,181.4 -222.6,164.8 -213.4,164.8 -213.7,166.4 -220.6,166.4 -220.6,171.8 
		-214.8,171.8 -214.8,173.6 -220.6,173.6 -220.6,179.7 -213.2,179.7 -213.2,181.4 	"/>
	<path id="XMLID_103_" class="st1" d="M-210.3,181.4v-16.7h2.3l5.6,10.7c0.4,0.7,0.9,1.9,1.6,3.5c-0.1-1-0.1-2.7-0.2-5.1l-0.1-9.1h2
		v16.7h-2.1l-5.4-10.3c-0.9-1.8-1.6-3.1-1.9-4c0.1,1.5,0.2,3.1,0.2,4.6l0.1,9.7H-210.3z"/>
	<polygon id="XMLID_102_" class="st1" points="-196.8,166.3 -196.8,164.6 -185.7,164.6 -185.8,166.3 -190.4,166.3 -190.4,181.4 
		-192.3,181.4 -192.3,166.3 	"/>
	<polygon id="XMLID_101_" class="st1" points="-183.1,181.4 -183.1,164.8 -174,164.8 -174.2,166.4 -181.1,166.4 -181.1,171.8 
		-175.4,171.8 -175.4,173.6 -181.1,173.6 -181.1,179.7 -173.7,179.7 -173.7,181.4 	"/>
	<path id="XMLID_100_" class="st1" d="M-170.6,178.6v-14h2v13.9c0,0.6,0,1.2,0,1.8c0,0.8-0.2,1.5-0.6,2.1c-0.5,1-1.5,1.7-2.8,2.2
		l-1-1.2c1-0.4,1.6-0.9,2-1.6C-170.7,181.2-170.6,180.1-170.6,178.6z"/>
	<path id="XMLID_374_" class="st1" d="M-165.3,173c0-2.7,0.6-4.8,1.8-6.3c1.2-1.5,2.8-2.3,4.9-2.3c2.3,0,4.1,0.9,5.3,2.7
		c1,1.5,1.5,3.6,1.5,6.2c0,3.1-0.8,5.3-2.4,6.8c-1.2,1.1-2.6,1.6-4.3,1.6c-1.9,0-3.5-0.7-4.8-2.1
		C-164.6,178.1-165.3,175.9-165.3,173z M-154.8,168.3c-0.7-1.5-2-2.3-3.7-2.3c-0.8,0-1.5,0.2-2.1,0.5c-0.6,0.4-1.1,0.8-1.5,1.4
		c-0.6,1.1-0.9,2.6-0.9,4.6c0,2.7,0.4,4.6,1.1,5.8c0.3,0.5,0.8,1,1.5,1.3s1.4,0.5,2.1,0.5c1.3,0,2.4-0.5,3.1-1.4
		c0.8-1,1.2-2.8,1.2-5.2C-154,171.2-154.3,169.4-154.8,168.3z"/>
	<path id="XMLID_97_" class="st1" d="M-263.2,195.2h4.3v-1.1h-2.9l2.4-3c0.2-0.2,0.3-0.4,0.3-0.6c0.1-0.2,0.1-0.4,0.1-0.7
		c0-0.6-0.2-1.1-0.6-1.5c-0.4-0.4-0.9-0.6-1.6-0.6c-0.6,0-1.1,0.2-1.5,0.6c-0.4,0.4-0.6,0.9-0.6,1.5h1.1c0-0.3,0.1-0.6,0.3-0.8
		c0.2-0.2,0.4-0.3,0.7-0.3c0.3,0,0.6,0.1,0.8,0.3c0.2,0.2,0.3,0.5,0.3,0.7c0,0.1,0,0.2,0,0.3s-0.1,0.3-0.2,0.4l-2.9,3.7
		L-263.2,195.2L-263.2,195.2z"/>
	<path id="XMLID_370_" class="st1" d="M-254.9,193.1c0,0.4-0.1,0.6-0.3,0.8c-0.2,0.2-0.4,0.3-0.8,0.3c-0.3,0-0.6-0.1-0.8-0.3
		c-0.2-0.2-0.3-0.5-0.3-0.8v-3.2c0-0.4,0.1-0.6,0.3-0.8c0.2-0.2,0.4-0.3,0.8-0.3c0.3,0,0.6,0.1,0.8,0.3c0.2,0.2,0.3,0.5,0.3,0.8
		V193.1z M-258.1,193.1c0,0.5,0.1,0.9,0.3,1.2c0.2,0.3,0.5,0.6,0.8,0.7c0.3,0.2,0.7,0.3,1,0.3c0.4,0,0.7-0.1,1-0.3
		c0.3-0.2,0.6-0.4,0.8-0.7c0.2-0.3,0.3-0.7,0.3-1.2v-3.3c0-0.5-0.1-0.9-0.3-1.2c-0.2-0.3-0.5-0.6-0.8-0.7c-0.3-0.2-0.7-0.3-1-0.3
		c-0.4,0-0.7,0.1-1,0.3c-0.3,0.2-0.6,0.4-0.8,0.7c-0.2,0.3-0.3,0.7-0.3,1.2V193.1z"/>
	<path id="XMLID_367_" class="st1" d="M-249.8,193.1c0,0.4-0.1,0.6-0.3,0.8c-0.2,0.2-0.4,0.3-0.8,0.3c-0.3,0-0.6-0.1-0.8-0.3
		c-0.2-0.2-0.3-0.5-0.3-0.8v-3.2c0-0.4,0.1-0.6,0.3-0.8c0.2-0.2,0.4-0.3,0.8-0.3c0.3,0,0.6,0.1,0.8,0.3c0.2,0.2,0.3,0.5,0.3,0.8
		V193.1z M-253,193.1c0,0.5,0.1,0.9,0.3,1.2c0.2,0.3,0.5,0.6,0.8,0.7c0.3,0.2,0.7,0.3,1,0.3c0.4,0,0.7-0.1,1-0.3
		c0.3-0.2,0.6-0.4,0.8-0.7c0.2-0.3,0.3-0.7,0.3-1.2v-3.3c0-0.5-0.1-0.9-0.3-1.2c-0.2-0.3-0.5-0.6-0.8-0.7c-0.3-0.2-0.7-0.3-1-0.3
		c-0.4,0-0.7,0.1-1,0.3c-0.3,0.2-0.6,0.4-0.8,0.7c-0.2,0.3-0.3,0.7-0.3,1.2V193.1z"/>
	<polygon id="XMLID_92_" class="st1" points="-247.8,188.8 -244.8,188.8 -247.3,195.2 -246.1,195.2 -243.6,188.8 -243.6,187.7 
		-247.8,187.7 	"/>
	<path id="XMLID_91_" class="st1" d="M-243.1,194.6c0-0.2,0.1-0.4,0.2-0.5c0.1-0.1,0.3-0.2,0.5-0.2s0.4,0.1,0.5,0.2
		c0.1,0.1,0.2,0.3,0.2,0.5c0,0.2-0.1,0.4-0.2,0.5c-0.1,0.1-0.3,0.2-0.5,0.2s-0.4-0.1-0.5-0.2C-243,195-243.1,194.8-243.1,194.6z"/>
	<path id="XMLID_90_" class="st1" d="M-240.7,195.2h4.3v-1.1h-2.9l2.4-3c0.2-0.2,0.3-0.4,0.3-0.6c0.1-0.2,0.1-0.4,0.1-0.7
		c0-0.6-0.2-1.1-0.6-1.5c-0.4-0.4-0.9-0.6-1.6-0.6c-0.6,0-1.1,0.2-1.5,0.6c-0.4,0.4-0.6,0.9-0.6,1.5h1.1c0-0.3,0.1-0.6,0.4-0.8
		c0.2-0.2,0.4-0.3,0.7-0.3c0.3,0,0.6,0.1,0.8,0.3c0.2,0.2,0.3,0.5,0.3,0.7c0,0.1,0,0.2-0.1,0.3c0,0.1-0.1,0.3-0.2,0.4l-2.9,3.7
		L-240.7,195.2L-240.7,195.2z"/>
	<path id="XMLID_361_" class="st1" d="M-232.4,193.1c0,0.4-0.1,0.6-0.3,0.8c-0.2,0.2-0.4,0.3-0.8,0.3c-0.3,0-0.6-0.1-0.8-0.3
		c-0.2-0.2-0.3-0.5-0.3-0.8v-3.2c0-0.4,0.1-0.6,0.3-0.8c0.2-0.2,0.4-0.3,0.8-0.3c0.3,0,0.6,0.1,0.8,0.3c0.2,0.2,0.3,0.5,0.3,0.8
		V193.1z M-235.6,193.1c0,0.5,0.1,0.9,0.3,1.2c0.2,0.3,0.5,0.6,0.8,0.7c0.3,0.2,0.7,0.3,1,0.3c0.4,0,0.7-0.1,1-0.3
		c0.3-0.2,0.6-0.4,0.8-0.7c0.2-0.3,0.3-0.7,0.3-1.2v-3.3c0-0.5-0.1-0.9-0.3-1.2c-0.2-0.3-0.5-0.6-0.8-0.7c-0.3-0.2-0.7-0.3-1-0.3
		c-0.4,0-0.7,0.1-1,0.3c-0.3,0.2-0.6,0.4-0.8,0.7c-0.2,0.3-0.3,0.7-0.3,1.2V193.1z"/>
	<polygon id="XMLID_87_" class="st1" points="-228.9,195.2 -227.8,195.2 -227.8,187.7 -228.9,187.7 -230.2,188.8 -230.2,189.9 
		-228.9,189 	"/>
	<path id="XMLID_86_" class="st1" d="M-224.1,191.8h0.5c0.3,0,0.6,0.1,0.8,0.3c0.2,0.2,0.3,0.5,0.3,0.9c0,0.4-0.1,0.7-0.3,0.9
		c-0.2,0.2-0.5,0.3-0.8,0.3s-0.5-0.1-0.7-0.2c-0.2-0.2-0.3-0.4-0.4-0.6h-1.1c0.1,0.6,0.4,1.1,0.8,1.4s0.8,0.5,1.4,0.5
		c0.7,0,1.2-0.2,1.6-0.6c0.4-0.4,0.6-1,0.7-1.7c0-0.3-0.1-0.6-0.2-0.9s-0.4-0.5-0.7-0.7c0.3-0.2,0.5-0.4,0.6-0.7s0.2-0.5,0.2-0.8
		c0-0.4-0.1-0.7-0.3-1c-0.2-0.3-0.4-0.6-0.8-0.8c-0.3-0.2-0.7-0.3-1.2-0.3s-1,0.2-1.4,0.6c-0.4,0.4-0.6,0.8-0.7,1.4h1.1
		c0.1-0.3,0.2-0.5,0.4-0.7c0.2-0.1,0.4-0.2,0.6-0.2c0.3,0,0.6,0.1,0.8,0.3c0.2,0.2,0.3,0.5,0.3,0.8s-0.1,0.6-0.3,0.8
		c-0.2,0.2-0.5,0.3-0.8,0.3h-0.4V191.8z"/>
	<rect id="XMLID_85_" x="-230.3" y="194.1" class="st1" width="3.8" height="1.1"/>
	<polygon id="XMLID_84_" class="st1" points="-242.8,174.6 -240.2,174.6 -242.8,166.4 -242.8,164.6 -241.4,164.6 -235.8,181.4 
		-238.1,181.4 -239.7,176.3 -242.8,176.3 	"/>
</g>
<g id="XMLID_247_">
	<path id="XMLID_350_" class="st1" d="M-435.2,162.7c0.3,0,1.9,0,1.9,0c4.5,0,8.1-3.7,8.1-8.1c0-4.5-3.7-8.1-8.1-8.1h-18.9
		c-1,0-1.8,0.8-1.8,1.8c0,0,0,18.9,0,26.3l-5-5c2-2.5,3.2-5.7,3.2-9.2c0-8.2-6.7-14.9-14.9-14.9s-14.9,6.7-14.9,14.9
		c0,8.2,6.7,14.9,14.9,14.9c3.5,0,6.6-1.2,9.2-3.2l5,5c-7.4,0-26.3,0-26.3,0c-1,0-1.8,0.8-1.8,1.8v25.3c0,1,0.8,1.8,1.8,1.8h30.7
		c1,0,1.8-0.8,1.8-1.8c0,0,0-14.9,0-20.9c4.8,4.8,22.2,22.2,22.2,22.2c0.5,0.5,1.3,0.7,2,0.4s1.1-0.9,1.1-1.7v-30.7
		c0-0.5-0.2-0.9-0.5-1.3C-425.7,172.2-431.7,166.2-435.2,162.7z M-450.4,150.1c3,0,17.1,0,17.1,0c2.5,0,4.5,2,4.5,4.5
		s-2,4.5-4.5,4.5c0,0-14.1,0-17.1,0C-450.4,155-450.4,151.1-450.4,150.1z M-470.8,171.7c-6.2,0-11.3-5.1-11.3-11.3
		c0-6.2,5.1-11.3,11.3-11.3s11.3,5.1,11.3,11.3c0,2.4-0.8,4.7-2.1,6.6l-7.4-7.4c-0.7-0.7-1.9-0.7-2.6,0c-0.7,0.7-0.7,1.9,0,2.6
		l7.4,7.4C-466.1,170.9-468.4,171.7-470.8,171.7z M-454.1,202.4c-3,0-24.1,0-27.1,0c0-1.3,0-5,0-9h18.9c1,0,1.8-0.8,1.8-1.8
		s-0.8-1.8-1.8-1.8h-18.9c0-4,0-7.7,0-9c3,0,24.1,0,27.1,0C-454.1,183.7-454.1,199.5-454.1,202.4z M-428.8,199.8
		c-4.7-4.7-20.7-20.7-21.6-21.6c0-0.7,0-7.8,0-15.5c1.7,0,5.3,0,10.1,0c0.9,0.9,10.6,10.6,11.6,11.6
		C-428.8,175.5-428.8,193.6-428.8,199.8z"/>
	<path id="XMLID_347_" class="st1" d="M-412.8,153c0,2.5-0.4,4.2-2.7,4.3l0,0l3.9,0.9v0.4l-5.3-1.4c-1.8-0.5-2-2-2-4.2
		c0-2.6,0.4-4.3,3.1-4.3C-413.2,148.7-412.8,150.4-412.8,153z M-413.2,153c0-2.6-0.4-4-2.7-4c-2.3,0-2.7,1.4-2.7,4s0.4,4,2.7,4
		C-413.6,157-413.2,155.6-413.2,153z"/>
	<path id="XMLID_76_" class="st1" d="M-408.3,157c1.7,0,2.6-0.5,2.6-2.5v-5.7h0.4v5.8c0,2.3-1.3,2.8-2.9,2.8s-2.9-0.5-2.9-2.8v-5.8
		h0.4v5.7C-410.8,156.5-409.9,157-408.3,157z"/>
	<path id="XMLID_343_" class="st1" d="M-398.3,157.3l-0.9-2.5h-3.7l-0.8,2.5h-0.4l3-8.6h0.2l3,8.6H-398.3z M-402.8,154.5h3.5
		l-1.8-5.2L-402.8,154.5z"/>
	<path id="XMLID_340_" class="st1" d="M-396.4,157.3v-8.5h2.5c2.7,0,3.3,1.6,3.3,4.3c0,2.7-0.6,4.3-3.3,4.3L-396.4,157.3
		L-396.4,157.3z M-396,156.9h2c2.4,0,2.9-1.3,2.9-3.9s-0.6-3.9-2.9-3.9h-2V156.9z"/>
	<path id="XMLID_337_" class="st1" d="M-388.5,157.3h-0.4v-8.5h2.7c2.1,0,2.6,0.8,2.6,2.3c0,1.2-0.4,2-1.8,2.2l2.1,4h-0.4l-2.1-3.9
		c-0.1,0-0.3,0-0.4,0h-2.3L-388.5,157.3L-388.5,157.3z M-386.1,153c1.8,0,2.1-0.9,2.1-2s-0.3-2-2.1-2h-2.5v3.9h2.5V153z"/>
	<path id="XMLID_334_" class="st1" d="M-375.9,153c0,2.6-0.4,4.3-3.1,4.3s-3.1-1.7-3.1-4.3s0.4-4.3,3.1-4.3S-375.9,150.4-375.9,153z
		 M-376.3,153c0-2.6-0.4-4-2.7-4c-2.3,0-2.7,1.4-2.7,4s0.4,4,2.7,4C-376.7,157-376.3,155.6-376.3,153z"/>
	<path id="XMLID_331_" class="st1" d="M-418.9,170.5V162h2.5c2.7,0,3.3,1.6,3.3,4.3s-0.6,4.3-3.3,4.3h-2.5V170.5z M-418.5,170.2h2
		c2.4,0,2.9-1.3,2.9-3.9c0-2.6-0.6-3.9-2.9-3.9h-2V170.2z"/>
	<polygon id="XMLID_65_" class="st1" points="-407.1,166.2 -411,166.2 -411,170.2 -406.7,170.2 -406.7,170.5 -411.4,170.5 
		-411.4,162 -406.7,162 -406.7,162.3 -411,162.3 -411,165.9 -407.1,165.9 	"/>
	<path id="XMLID_327_" class="st1" d="M-402.3,170.5h-0.4V162h2.7c2.1,0,2.6,0.8,2.6,2.3c0,1.2-0.4,2-1.8,2.2l2.1,4h-0.4l-2.1-3.9
		c-0.1,0-0.3,0-0.4,0h-2.3L-402.3,170.5L-402.3,170.5z M-399.8,166.2c1.8,0,2.1-0.9,2.1-2c0-1.1-0.3-2-2.1-2h-2.5v3.9L-399.8,166.2
		L-399.8,166.2z"/>
	<polygon id="XMLID_62_" class="st1" points="-391.3,166.2 -395.2,166.2 -395.2,170.2 -390.9,170.2 -390.9,170.5 -395.6,170.5 
		-395.6,162 -390.9,162 -390.9,162.3 -395.2,162.3 -395.2,165.9 -391.3,165.9 	"/>
	<polygon id="XMLID_61_" class="st1" points="-385,166.2 -388.8,166.2 -388.8,170.5 -389.2,170.5 -389.2,162 -384.6,162 
		-384.6,162.3 -388.8,162.3 -388.8,165.9 -385,165.9 	"/>
	<polygon id="XMLID_60_" class="st1" points="-378.7,166.2 -382.6,166.2 -382.6,170.2 -378.2,170.2 -378.2,170.5 -383,170.5 
		-383,162 -378.2,162 -378.2,162.3 -382.6,162.3 -382.6,165.9 -378.7,165.9 	"/>
	<path id="XMLID_321_" class="st1" d="M-376.2,170.5h-0.4V162h2.7c2.1,0,2.6,0.8,2.6,2.3c0,1.2-0.4,2-1.8,2.2l2.1,4h-0.4l-2.1-3.9
		c-0.1,0-0.3,0-0.4,0h-2.3L-376.2,170.5L-376.2,170.5z M-373.7,166.2c1.8,0,2.1-0.9,2.1-2c0-1.1-0.3-2-2.1-2h-2.5v3.9L-373.7,166.2
		L-373.7,166.2z"/>
	<path id="XMLID_318_" class="st1" d="M-365.2,166.2h-3.9v3.9h4.4v0.3h-4.7v-8.5h4.7v0.3h-4.4v3.7h3.9V166.2z M-365.3,161.1l-1.6-2
		h-0.5l-1.6,2h0.3l1.6-1.6l1.6,1.6H-365.3z"/>
	<polygon id="XMLID_55_" class="st1" points="-357.6,170.5 -362.8,162.8 -362.7,170.5 -363.1,170.5 -363.1,162 -362.9,162 
		-357.7,169.7 -357.8,162 -357.4,162 -357.4,170.5 	"/>
	<path id="XMLID_54_" class="st1" d="M-355.7,166.2c0-2.7,0.8-4.3,3.3-4.3c1,0,1.6,0.1,2.1,0.3v0.4c-0.7-0.3-1.3-0.4-2.1-0.4
		c-2.1,0-2.9,1.3-2.9,4s0.8,4,2.9,4c0.8,0,1.4-0.1,2.1-0.4v0.4c-0.5,0.2-1.1,0.3-2.1,0.3C-354.9,170.6-355.7,169-355.7,166.2z"/>
	<rect id="XMLID_53_" x="-348.5" y="162" class="st1" width="0.4" height="8.5"/>
	<path id="XMLID_312_" class="st1" d="M-340.6,170.5l-0.9-2.5h-3.7l-0.8,2.5h-0.4l3-8.6h0.2l3,8.6H-340.6z M-345.1,167.7h3.5
		l-1.8-5.2L-345.1,167.7z"/>
	<polygon id="XMLID_50_" class="st1" points="-414.6,179.5 -418.5,179.5 -418.5,183.4 -414.2,183.4 -414.2,183.7 -418.9,183.7 
		-418.9,175.2 -414.2,175.2 -414.2,175.6 -418.5,175.6 -418.5,179.2 -414.6,179.2 	"/>
	<path id="XMLID_49_" class="st1" d="M-409.8,175.2c1,0,1.6,0.1,2.1,0.3v0.4c-0.7-0.3-1.3-0.4-2.1-0.4c-1.9,0-2.4,0.9-2.4,1.9
		c0,1.4,0.6,1.6,2.4,1.8c1.8,0.2,2.6,0.4,2.6,2.2c0,1.1-0.6,2.4-3.1,2.4c-0.7,0-1.7-0.2-2.3-0.4v-0.3c0.5,0.2,1.2,0.4,2.3,0.4
		c2.1,0,2.7-0.9,2.7-2.1c0-1.4-0.4-1.7-2.3-1.9c-1.9-0.2-2.6-0.5-2.6-2.1C-412.6,176.3-412.1,175.2-409.8,175.2z"/>
	<polygon id="XMLID_48_" class="st1" points="-403.3,175.5 -403.3,183.7 -403.6,183.7 -403.6,175.5 -406.1,175.5 -406.1,175.2 
		-400.8,175.2 -400.8,175.5 	"/>
	<path id="XMLID_306_" class="st1" d="M-398.9,183.7h-0.4v-8.5h2.7c2.1,0,2.6,0.8,2.6,2.3c0,1.2-0.4,2-1.8,2.2l2.1,4h-0.4l-2.1-3.9
		c-0.1,0-0.3,0-0.4,0h-2.3L-398.9,183.7L-398.9,183.7z M-396.4,179.5c1.8,0,2.1-0.9,2.1-2s-0.3-2-2.1-2h-2.5v3.9h2.5V179.5z"/>
	<path id="XMLID_303_" class="st1" d="M-386.6,183.7l-0.9-2.5h-3.7l-0.8,2.5h-0.4l3-8.6h0.2l3,8.6H-386.6z M-391.1,181h3.5l-1.8-5.2
		L-391.1,181z"/>
	<polygon id="XMLID_43_" class="st1" points="-383.3,175.5 -383.3,183.7 -383.7,183.7 -383.7,175.5 -386.1,175.5 -386.1,175.2 
		-380.8,175.2 -380.8,175.5 	"/>
	<path id="XMLID_299_" class="st1" d="M-375,179.5h-3.9v3.9h4.4v0.3h-4.7v-8.5h4.7v0.3h-4.4v3.6h3.9V179.5z M-377,174.3l1.2-2h0.6
		l-1.5,2H-377z"/>
	<path id="XMLID_40_" class="st1" d="M-369.9,183.5c0.7,0,1.6-0.1,2.1-0.4v-3.3h-1.8v-0.3h2.2v3.9c-0.6,0.2-1.4,0.4-2.5,0.4
		c-2.5,0-3.3-1.6-3.3-4.3c0-2.7,0.8-4.3,3.3-4.3c1.1,0,1.8,0.2,2.3,0.4v0.3c-0.7-0.3-1.4-0.4-2.3-0.4c-2.1,0-2.9,1.3-2.9,4
		C-372.8,182.1-372,183.5-369.9,183.5z"/>
	<rect id="XMLID_39_" x="-365.4" y="175.2" class="st1" width="0.4" height="8.5"/>
	<path id="XMLID_38_" class="st1" d="M-363.2,179.5c0-2.7,0.8-4.3,3.3-4.3c1,0,1.6,0.1,2.1,0.3v0.4c-0.7-0.3-1.3-0.4-2.1-0.4
		c-2.1,0-2.9,1.3-2.9,4s0.8,4,2.9,4c0.8,0,1.4-0.1,2.1-0.4v0.4c-0.5,0.2-1.1,0.3-2.1,0.3C-362.4,183.8-363.2,182.2-363.2,179.5z"/>
	<path id="XMLID_293_" class="st1" d="M-350.4,179.5c0,2.6-0.4,4.3-3.1,4.3s-3.1-1.7-3.1-4.3s0.4-4.3,3.1-4.3
		C-350.8,175.2-350.4,176.9-350.4,179.5z M-350.8,179.5c0-2.6-0.4-4-2.7-4c-2.3,0-2.7,1.4-2.7,4s0.4,4,2.7,4
		C-351.2,183.5-350.8,182.1-350.8,179.5z"/>
	<polygon id="XMLID_35_" class="st1" points="-413.4,197 -418.5,189.3 -418.5,197 -418.9,197 -418.9,188.5 -418.7,188.5 
		-413.5,196.2 -413.5,188.5 -413.2,188.5 -413.2,197 	"/>
	<path id="XMLID_289_" class="st1" d="M-405.8,197l-0.9-2.5h-3.7l-0.8,2.5h-0.4l3-8.6h0.2l3,8.6H-405.8z M-410.3,194.2h3.5l-1.8-5.2
		L-410.3,194.2z"/>
	<path id="XMLID_32_" class="st1" d="M-404.4,192.7c0-2.7,0.8-4.3,3.3-4.3c1,0,1.6,0.1,2.1,0.3v0.4c-0.7-0.3-1.3-0.4-2.1-0.4
		c-2.1,0-2.9,1.3-2.9,4c0,2.7,0.8,4,2.9,4c0.8,0,1.4-0.1,2.1-0.4v0.4c-0.5,0.2-1.1,0.3-2.1,0.3C-403.6,197-404.4,195.5-404.4,192.7z
		"/>
	<rect id="XMLID_31_" x="-397.2" y="188.5" class="st1" width="0.4" height="8.5"/>
	<path id="XMLID_284_" class="st1" d="M-388.8,192.7c0,2.6-0.4,4.3-3.1,4.3s-3.1-1.7-3.1-4.3s0.4-4.3,3.1-4.3
		C-389.2,188.4-388.8,190.1-388.8,192.7z M-389.1,192.7c0-2.6-0.4-4-2.7-4c-2.3,0-2.7,1.4-2.7,4c0,2.6,0.4,4,2.7,4
		S-389.1,195.3-389.1,192.7z"/>
	<polygon id="XMLID_28_" class="st1" points="-381.5,197 -386.6,189.3 -386.6,197 -387,197 -387,188.5 -386.8,188.5 -381.6,196.2 
		-381.6,188.5 -381.3,188.5 -381.3,197 	"/>
	<path id="XMLID_280_" class="st1" d="M-373.9,197l-0.9-2.5h-3.7l-0.8,2.5h-0.4l3-8.6h0.2l3,8.6H-373.9z M-378.4,194.2h3.5l-1.8-5.2
		L-378.4,194.2z"/>
	<polygon id="XMLID_25_" class="st1" points="-371.7,196.6 -367.5,196.6 -367.5,197 -372,197 -372,188.5 -371.7,188.5 	"/>
	<path id="XMLID_276_" class="st1" d="M-418.5,205.5h-0.4v-3.8h1.2c1,0,1.3,0.5,1.3,1.1c0,0.6-0.3,1.1-1.3,1.1h-0.8V205.5z
		 M-418.5,203.7h0.8c0.7,0,0.9-0.4,0.9-0.8c0-0.4-0.1-0.8-0.9-0.8h-0.8V203.7z"/>
	<path id="XMLID_273_" class="st1" d="M-414.3,205.6c-1.2,0-1.4-1-1.4-2s0.2-2,1.4-2c1.3,0,1.4,1,1.4,2
		C-412.9,204.6-413,205.6-414.3,205.6z M-414.3,202c-0.9,0-1,0.7-1,1.6c0,0.9,0.1,1.6,1,1.6c0.9,0,1-0.7,1-1.6S-413.4,202-414.3,202
		z"/>
	<path id="XMLID_270_" class="st1" d="M-411.6,205.5h-0.4v-3.8h1.2c0.9,0,1.2,0.4,1.2,1.1c0,0.5-0.2,0.9-0.7,1l0.9,1.7h-0.5
		l-0.8-1.7c-0.1,0-0.1,0-0.2,0h-0.8L-411.6,205.5L-411.6,205.5z M-411.6,203.5h0.9c0.7,0,0.8-0.3,0.8-0.7c0-0.4-0.1-0.7-0.8-0.7
		h-0.9V203.5z"/>
	<polygon id="XMLID_18_" class="st1" points="-407.5,202 -407.5,205.5 -407.8,205.5 -407.8,202 -408.9,202 -408.9,201.7 
		-406.4,201.7 -406.4,202 	"/>
	<path id="XMLID_17_" class="st1" d="M-403.3,204.3v-2.6h0.4v2.6c0,1.1-0.9,1.2-1.3,1.2c-0.5,0-1.3-0.2-1.3-1.2v-2.6h0.4v2.6
		c0,0.9,0.6,1,1,1C-404,205.2-403.3,205.2-403.3,204.3z"/>
	<path id="XMLID_16_" class="st1" d="M-400.6,205.6c-1.1,0-1.5-0.9-1.5-2c0-1.1,0.4-2,1.5-2c0.5,0,0.9,0.1,1.1,0.2v0.4
		c-0.4-0.2-0.7-0.2-1.1-0.2c-0.8,0-1.1,0.7-1.1,1.6c0,0.9,0.3,1.6,1.1,1.6c0.3,0,0.6,0,0.8-0.1v-1.3h-0.8v-0.3h1.1v1.8
		C-399.7,205.5-400.1,205.6-400.6,205.6z"/>
	<path id="XMLID_264_" class="st1" d="M-396.1,205.5l-0.4-1.1h-1.5l-0.4,1.1h-0.4l1.3-3.9h0.3l1.3,3.9H-396.1z M-397.8,204.1h1.3
		l-0.6-1.9L-397.8,204.1z"/>
	<polygon id="XMLID_13_" class="st1" points="-394.6,205.2 -392.9,205.2 -392.9,205.5 -395,205.5 -395,201.7 -394.6,201.7 	"/>
	<path id="XMLID_12_" class="st1" d="M-391,202.3c-0.3,0-0.5,0-1,0.2v-0.7c0.3-0.1,0.6-0.2,1-0.2c1.1,0,1.2,0.6,1.2,1.1
		c0,0.3-0.2,0.6-0.5,1l-1.1,1.2h1.6v0.7h-2.5v-0.5l1.6-2c0.1-0.1,0.2-0.2,0.2-0.4C-390.4,202.5-390.5,202.3-391,202.3z"/>
	<path id="XMLID_259_" class="st1" d="M-389.1,203.6c0-1.6,0.3-2,1.3-2c0.9,0,1.3,0.4,1.3,2c0,1.6-0.3,2-1.3,2
		C-388.8,205.6-389.1,205.2-389.1,203.6z M-388.5,203.6c0,1.1,0.1,1.4,0.6,1.4s0.6-0.3,0.6-1.4c0-1.1-0.1-1.4-0.6-1.4
		C-388.3,202.3-388.5,202.5-388.5,203.6z"/>
	<path id="XMLID_256_" class="st1" d="M-386,203.6c0-1.6,0.3-2,1.3-2c0.9,0,1.3,0.4,1.3,2c0,1.6-0.3,2-1.3,2S-386,205.2-386,203.6z
		 M-385.3,203.6c0,1.1,0.1,1.4,0.6,1.4s0.6-0.3,0.6-1.4c0-1.1-0.1-1.4-0.6-1.4C-385.2,202.3-385.3,202.5-385.3,203.6z"/>
	<polygon id="XMLID_7_" class="st1" points="-382.6,205.5 -381.1,202.3 -383,202.3 -383,201.7 -380.4,201.7 -380.4,202.1 
		-381.8,205.5 	"/>
	<path id="XMLID_6_" class="st1" d="M-380,204.8c0.2,0,0.4,0.2,0.4,0.4c0,0.2-0.2,0.4-0.4,0.4c-0.2,0-0.4-0.2-0.4-0.4
		C-380.4,205-380.2,204.8-380,204.8z"/>
	<path id="XMLID_5_" class="st1" d="M-377.8,202.3c-0.3,0-0.5,0-1,0.2v-0.7c0.3-0.1,0.6-0.2,1-0.2c1.1,0,1.2,0.6,1.2,1.1
		c0,0.3-0.2,0.6-0.5,1l-1.1,1.2h1.6v0.7h-2.5v-0.5l1.6-2c0.1-0.1,0.2-0.2,0.2-0.4C-377.3,202.5-377.4,202.3-377.8,202.3z"/>
	<path id="XMLID_250_" class="st1" d="M-376,203.6c0-1.6,0.3-2,1.3-2c0.9,0,1.3,0.4,1.3,2c0,1.6-0.3,2-1.3,2S-376,205.2-376,203.6z
		 M-375.3,203.6c0,1.1,0.1,1.4,0.6,1.4s0.6-0.3,0.6-1.4c0-1.1-0.1-1.4-0.6-1.4C-375.2,202.3-375.3,202.5-375.3,203.6z"/>
	<polygon id="XMLID_2_" class="st1" points="-372.9,204.9 -372.1,204.9 -372.1,202.3 -372.8,202.3 -372.8,201.9 -371.8,201.6 
		-371.4,201.6 -371.4,204.9 -370.7,204.9 -370.7,205.5 -372.9,205.5 	"/>
	<path id="XMLID_1_" class="st1" d="M-370,202.5v-0.7c0.2-0.1,0.8-0.1,1.1-0.1c1.1,0,1.3,0.5,1.3,1.1c0,0.2-0.1,0.6-0.3,0.7
		c0.3,0.2,0.4,0.6,0.4,0.9c0,0.6-0.3,1.2-1.4,1.2c-0.4,0-0.9-0.1-1.1-0.2v-0.7c0.3,0.1,0.7,0.2,1.1,0.2c0.6,0,0.7-0.3,0.7-0.6
		s-0.1-0.5-0.6-0.5h-0.7v-0.7h0.7c0.4,0,0.5-0.3,0.5-0.5s-0.1-0.5-0.6-0.5C-369.3,202.3-369.8,202.3-370,202.5z"/>
</g>
<g>
	<path class="st2" d="M432.3,185.9v-5.2h2c0.3,0,0.6,0,0.8,0.1c0.3,0,0.5,0.1,0.6,0.2c0.2,0.1,0.3,0.3,0.4,0.5
		c0.1,0.2,0.2,0.5,0.2,0.7c0,0.4-0.1,0.8-0.4,1.1c-0.3,0.3-0.8,0.5-1.5,0.5H433v2.1H432.3L432.3,185.9z M433,183.1h1.4
		c0.4,0,0.8-0.1,1-0.3c0.2-0.2,0.3-0.4,0.3-0.7c0-0.2-0.1-0.4-0.2-0.6c-0.1-0.2-0.3-0.3-0.4-0.3c-0.1,0-0.3,0-0.6,0H433V183.1
		L433,183.1z"/>
	<path class="st0" d="M437.1,185.9V182h0.6v0.6c0.1-0.3,0.3-0.4,0.4-0.5c0.1-0.1,0.3-0.1,0.4-0.1c0.2,0,0.4,0.1,0.7,0.2l-0.2,0.6
		c-0.2-0.1-0.3-0.1-0.5-0.1c-0.1,0-0.3,0-0.4,0.1c-0.1,0.1-0.2,0.2-0.2,0.4c-0.1,0.2-0.1,0.5-0.1,0.8v2H437.1L437.1,185.9z"/>
	<path class="st2" d="M439.3,183.9c0-0.7,0.2-1.2,0.6-1.6c0.3-0.3,0.7-0.4,1.2-0.4c0.5,0,1,0.2,1.3,0.5c0.3,0.3,0.5,0.8,0.5,1.4
		c0,0.5-0.1,0.9-0.2,1.2c-0.1,0.3-0.4,0.5-0.6,0.7c-0.3,0.2-0.6,0.2-0.9,0.2c-0.5,0-1-0.2-1.3-0.5
		C439.5,185.1,439.3,184.6,439.3,183.9L439.3,183.9z M440,183.9c0,0.5,0.1,0.9,0.3,1.1c0.2,0.2,0.5,0.4,0.8,0.4
		c0.3,0,0.6-0.1,0.8-0.4c0.2-0.2,0.3-0.6,0.3-1.1c0-0.5-0.1-0.8-0.3-1.1c-0.2-0.2-0.5-0.4-0.8-0.4c-0.3,0-0.6,0.1-0.8,0.4
		C440.1,183.1,440,183.5,440,183.9L440,183.9z"/>
	<path class="st2" d="M443.5,186.2l0.6,0.1c0,0.2,0.1,0.3,0.2,0.4c0.2,0.1,0.4,0.2,0.7,0.2c0.3,0,0.5-0.1,0.7-0.2
		c0.2-0.1,0.3-0.3,0.3-0.5c0-0.1,0-0.4,0-0.8c-0.3,0.3-0.6,0.5-1.1,0.5c-0.5,0-0.9-0.2-1.2-0.6c-0.3-0.4-0.4-0.8-0.4-1.4
		c0-0.4,0.1-0.7,0.2-1c0.1-0.3,0.3-0.5,0.6-0.7c0.3-0.2,0.5-0.3,0.9-0.3c0.4,0,0.8,0.2,1.1,0.5V182h0.6v3.3c0,0.6-0.1,1-0.2,1.3
		c-0.1,0.2-0.3,0.4-0.6,0.6c-0.3,0.1-0.6,0.2-1,0.2c-0.5,0-0.8-0.1-1.1-0.3C443.6,186.9,443.5,186.6,443.5,186.2L443.5,186.2z
		 M444,183.9c0,0.5,0.1,0.9,0.3,1.1c0.2,0.2,0.4,0.3,0.7,0.3c0.3,0,0.5-0.1,0.7-0.3c0.2-0.2,0.3-0.6,0.3-1.1c0-0.5-0.1-0.8-0.3-1.1
		c-0.2-0.2-0.5-0.4-0.7-0.4c-0.3,0-0.5,0.1-0.7,0.3C444.1,183.1,444,183.4,444,183.9L444,183.9z"/>
	<path class="st0" d="M447.7,185.9V182h0.6v0.6c0.1-0.3,0.3-0.4,0.4-0.5c0.1-0.1,0.3-0.1,0.4-0.1c0.2,0,0.4,0.1,0.7,0.2l-0.2,0.6
		c-0.2-0.1-0.3-0.1-0.5-0.1c-0.1,0-0.3,0-0.4,0.1c-0.1,0.1-0.2,0.2-0.2,0.4c-0.1,0.2-0.1,0.5-0.1,0.8v2H447.7L447.7,185.9z"/>
	<path class="st2" d="M452.6,185.4c-0.2,0.2-0.5,0.3-0.7,0.4c-0.2,0.1-0.5,0.1-0.7,0.1c-0.4,0-0.7-0.1-1-0.3
		c-0.2-0.2-0.3-0.5-0.3-0.8c0-0.2,0-0.4,0.1-0.5c0.1-0.2,0.2-0.3,0.3-0.4c0.1-0.1,0.3-0.2,0.5-0.2c0.1,0,0.3-0.1,0.6-0.1
		c0.5-0.1,0.9-0.1,1.1-0.2c0-0.1,0-0.1,0-0.2c0-0.3-0.1-0.4-0.2-0.6c-0.2-0.1-0.4-0.2-0.7-0.2c-0.3,0-0.5,0.1-0.7,0.2
		c-0.1,0.1-0.2,0.3-0.3,0.6l-0.6-0.1c0.1-0.3,0.2-0.5,0.3-0.7c0.1-0.2,0.3-0.3,0.6-0.4c0.2-0.1,0.5-0.1,0.9-0.1c0.3,0,0.6,0,0.8,0.1
		c0.2,0.1,0.4,0.2,0.4,0.3c0.1,0.1,0.2,0.3,0.2,0.4c0,0.1,0,0.3,0,0.6v0.9c0,0.6,0,1,0,1.1c0,0.2,0.1,0.3,0.2,0.5h-0.7
		C452.7,185.7,452.6,185.6,452.6,185.4L452.6,185.4z M452.6,183.9c-0.2,0.1-0.6,0.2-1.1,0.2c-0.3,0-0.5,0.1-0.6,0.1
		c-0.1,0-0.2,0.1-0.3,0.2c-0.1,0.1-0.1,0.2-0.1,0.3c0,0.2,0.1,0.3,0.2,0.4c0.1,0.1,0.3,0.2,0.6,0.2c0.2,0,0.5-0.1,0.7-0.2
		c0.2-0.1,0.3-0.3,0.4-0.4c0.1-0.1,0.1-0.4,0.1-0.6V183.9L452.6,183.9z"/>
	<path class="st0" d="M454.2,185.9V182h0.6v0.5c0.1-0.2,0.3-0.3,0.5-0.4c0.2-0.1,0.4-0.2,0.7-0.2c0.3,0,0.5,0.1,0.7,0.2
		c0.2,0.1,0.3,0.3,0.4,0.5c0.3-0.4,0.7-0.7,1.2-0.7c0.4,0,0.7,0.1,0.9,0.3c0.2,0.2,0.3,0.5,0.3,1v2.6h-0.6v-2.4c0-0.3,0-0.4-0.1-0.6
		c0-0.1-0.1-0.2-0.2-0.3c-0.1-0.1-0.2-0.1-0.4-0.1c-0.3,0-0.5,0.1-0.7,0.3c-0.2,0.2-0.3,0.5-0.3,0.9v2.2h-0.6v-2.5
		c0-0.3-0.1-0.5-0.2-0.6c-0.1-0.1-0.3-0.2-0.5-0.2c-0.2,0-0.3,0-0.5,0.1c-0.2,0.1-0.3,0.2-0.3,0.4c-0.1,0.2-0.1,0.4-0.1,0.8v2H454.2
		L454.2,185.9z"/>
	<path class="st2" d="M462.8,185.4c-0.2,0.2-0.5,0.3-0.7,0.4c-0.2,0.1-0.5,0.1-0.7,0.1c-0.4,0-0.7-0.1-1-0.3
		c-0.2-0.2-0.3-0.5-0.3-0.8c0-0.2,0-0.4,0.1-0.5c0.1-0.2,0.2-0.3,0.3-0.4c0.1-0.1,0.3-0.2,0.5-0.2c0.1,0,0.3-0.1,0.6-0.1
		c0.5-0.1,0.9-0.1,1.1-0.2c0-0.1,0-0.1,0-0.2c0-0.3-0.1-0.4-0.2-0.6c-0.2-0.1-0.4-0.2-0.7-0.2c-0.3,0-0.5,0.1-0.7,0.2
		c-0.1,0.1-0.2,0.3-0.3,0.6l-0.6-0.1c0.1-0.3,0.2-0.5,0.3-0.7c0.1-0.2,0.3-0.3,0.6-0.4c0.2-0.1,0.5-0.1,0.9-0.1c0.3,0,0.6,0,0.8,0.1
		c0.2,0.1,0.4,0.2,0.4,0.3c0.1,0.1,0.2,0.3,0.2,0.4c0,0.1,0,0.3,0,0.6v0.9c0,0.6,0,1,0,1.1c0,0.2,0.1,0.3,0.2,0.5h-0.7
		C462.9,185.7,462.8,185.6,462.8,185.4L462.8,185.4z M462.7,183.9c-0.2,0.1-0.6,0.2-1.1,0.2c-0.3,0-0.5,0.1-0.6,0.1
		c-0.1,0-0.2,0.1-0.3,0.2c-0.1,0.1-0.1,0.2-0.1,0.3c0,0.2,0.1,0.3,0.2,0.4c0.1,0.1,0.3,0.2,0.6,0.2c0.2,0,0.5-0.1,0.7-0.2
		c0.2-0.1,0.3-0.3,0.4-0.4c0.1-0.1,0.1-0.4,0.1-0.6V183.9L462.7,183.9z"/>
	<path class="st2" d="M466.3,183.3c0-0.9,0.2-1.6,0.7-2c0.5-0.5,1.1-0.7,1.8-0.7c0.5,0,0.9,0.1,1.3,0.3c0.4,0.2,0.7,0.6,0.9,1
		c0.2,0.4,0.3,0.9,0.3,1.4c0,0.5-0.1,1-0.3,1.4c-0.2,0.4-0.5,0.7-0.9,1c-0.4,0.2-0.8,0.3-1.3,0.3c-0.5,0-0.9-0.1-1.3-0.4
		c-0.4-0.2-0.7-0.6-0.9-1C466.4,184.2,466.3,183.8,466.3,183.3L466.3,183.3z M467,183.3c0,0.6,0.2,1.1,0.5,1.5
		c0.3,0.4,0.8,0.5,1.3,0.5c0.5,0,1-0.2,1.3-0.6c0.3-0.4,0.5-0.9,0.5-1.6c0-0.4-0.1-0.8-0.2-1.1c-0.1-0.3-0.4-0.6-0.6-0.7
		c-0.3-0.2-0.6-0.3-0.9-0.3c-0.5,0-0.9,0.2-1.3,0.5C467.2,182,467,182.5,467,183.3L467,183.3z"/>
	<path class="st2" d="M472.1,187.3V182h0.6v0.5c0.1-0.2,0.3-0.3,0.5-0.4c0.2-0.1,0.4-0.1,0.6-0.1c0.3,0,0.6,0.1,0.9,0.3
		c0.2,0.2,0.4,0.4,0.6,0.7c0.1,0.3,0.2,0.6,0.2,1c0,0.4-0.1,0.7-0.2,1.1c-0.1,0.3-0.3,0.5-0.6,0.7c-0.3,0.2-0.5,0.2-0.8,0.2
		c-0.2,0-0.4,0-0.6-0.1c-0.2-0.1-0.3-0.2-0.4-0.3v1.9H472.1L472.1,187.3z M472.7,184c0,0.5,0.1,0.9,0.3,1.1c0.2,0.2,0.4,0.4,0.7,0.4
		c0.3,0,0.5-0.1,0.7-0.4c0.2-0.2,0.3-0.6,0.3-1.1c0-0.5-0.1-0.8-0.3-1.1c-0.2-0.2-0.4-0.4-0.7-0.4c-0.3,0-0.5,0.1-0.7,0.4
		C472.8,183.1,472.7,183.5,472.7,184L472.7,184z"/>
	<path class="st2" d="M478.8,184.6l0.7,0.1c-0.1,0.4-0.3,0.7-0.6,0.9c-0.3,0.2-0.6,0.3-1.1,0.3c-0.6,0-1-0.2-1.3-0.5
		c-0.3-0.3-0.5-0.8-0.5-1.4c0-0.6,0.2-1.1,0.5-1.5c0.3-0.4,0.8-0.5,1.3-0.5c0.5,0,0.9,0.2,1.2,0.5c0.3,0.3,0.5,0.8,0.5,1.5
		c0,0,0,0.1,0,0.2h-2.8c0,0.4,0.1,0.7,0.4,1c0.2,0.2,0.5,0.3,0.8,0.3c0.2,0,0.4-0.1,0.6-0.2C478.6,185.1,478.7,184.9,478.8,184.6
		L478.8,184.6z M476.7,183.6h2.1c0-0.3-0.1-0.6-0.2-0.7c-0.2-0.2-0.5-0.4-0.8-0.4c-0.3,0-0.5,0.1-0.7,0.3
		C476.8,183,476.7,183.3,476.7,183.6L476.7,183.6z"/>
	<path class="st0" d="M480.3,185.9V182h0.6v0.6c0.1-0.3,0.3-0.4,0.4-0.5c0.1-0.1,0.3-0.1,0.4-0.1c0.2,0,0.4,0.1,0.7,0.2l-0.2,0.6
		c-0.2-0.1-0.3-0.1-0.5-0.1c-0.1,0-0.3,0-0.4,0.1c-0.1,0.1-0.2,0.2-0.2,0.4c-0.1,0.2-0.1,0.5-0.1,0.8v2H480.3L480.3,185.9z"/>
	<path class="st2" d="M485.2,185.4c-0.2,0.2-0.5,0.3-0.7,0.4c-0.2,0.1-0.5,0.1-0.7,0.1c-0.4,0-0.7-0.1-1-0.3
		c-0.2-0.2-0.3-0.5-0.3-0.8c0-0.2,0-0.4,0.1-0.5c0.1-0.2,0.2-0.3,0.3-0.4c0.1-0.1,0.3-0.2,0.5-0.2c0.1,0,0.3-0.1,0.6-0.1
		c0.5-0.1,0.9-0.1,1.1-0.2c0-0.1,0-0.1,0-0.2c0-0.3-0.1-0.4-0.2-0.6c-0.2-0.1-0.4-0.2-0.7-0.2c-0.3,0-0.5,0.1-0.7,0.2
		c-0.1,0.1-0.2,0.3-0.3,0.6l-0.6-0.1c0.1-0.3,0.2-0.5,0.3-0.7c0.1-0.2,0.3-0.3,0.6-0.4c0.2-0.1,0.5-0.1,0.9-0.1c0.3,0,0.6,0,0.8,0.1
		c0.2,0.1,0.4,0.2,0.4,0.3c0.1,0.1,0.2,0.3,0.2,0.4c0,0.1,0,0.3,0,0.6v0.9c0,0.6,0,1,0,1.1c0,0.2,0.1,0.3,0.2,0.5h-0.7
		C485.3,185.7,485.2,185.6,485.2,185.4L485.2,185.4z M485.2,183.9c-0.2,0.1-0.6,0.2-1.1,0.2c-0.3,0-0.5,0.1-0.6,0.1
		c-0.1,0-0.2,0.1-0.3,0.2c-0.1,0.1-0.1,0.2-0.1,0.3c0,0.2,0.1,0.3,0.2,0.4c0.1,0.1,0.3,0.2,0.6,0.2c0.2,0,0.5-0.1,0.7-0.2
		c0.2-0.1,0.3-0.3,0.4-0.4c0.1-0.1,0.1-0.4,0.1-0.6V183.9L485.2,183.9z"/>
	<path class="st0" d="M489.3,184.5l0.6,0.1c-0.1,0.4-0.2,0.8-0.5,1c-0.3,0.2-0.6,0.4-1,0.4c-0.5,0-0.9-0.2-1.3-0.5
		c-0.3-0.3-0.5-0.8-0.5-1.5c0-0.4,0.1-0.8,0.2-1.1c0.1-0.3,0.3-0.5,0.6-0.7c0.3-0.2,0.6-0.2,0.9-0.2c0.4,0,0.8,0.1,1,0.3
		c0.3,0.2,0.4,0.5,0.5,0.9l-0.6,0.1c-0.1-0.3-0.2-0.4-0.3-0.6c-0.2-0.1-0.3-0.2-0.5-0.2c-0.3,0-0.6,0.1-0.8,0.3
		c-0.2,0.2-0.3,0.6-0.3,1.1c0,0.5,0.1,0.9,0.3,1.1c0.2,0.2,0.5,0.3,0.8,0.3c0.3,0,0.5-0.1,0.6-0.2
		C489.1,185,489.2,184.8,489.3,184.5L489.3,184.5z"/>
	<path class="st2" d="M490.5,181.3v-0.7h0.6v0.7H490.5L490.5,181.3z M490.5,185.9V182h0.6v3.8H490.5L490.5,185.9z"/>
	<path class="st2" d="M491.9,183.9c0-0.7,0.2-1.2,0.6-1.6c0.3-0.3,0.7-0.4,1.2-0.4c0.5,0,1,0.2,1.3,0.5c0.3,0.3,0.5,0.8,0.5,1.4
		c0,0.5-0.1,0.9-0.2,1.2c-0.1,0.3-0.4,0.5-0.6,0.7c-0.3,0.2-0.6,0.2-0.9,0.2c-0.5,0-1-0.2-1.3-0.5
		C492,185.1,491.9,184.6,491.9,183.9L491.9,183.9z M492.5,183.9c0,0.5,0.1,0.9,0.3,1.1c0.2,0.2,0.5,0.4,0.8,0.4
		c0.3,0,0.6-0.1,0.8-0.4c0.2-0.2,0.3-0.6,0.3-1.1c0-0.5-0.1-0.8-0.3-1.1c-0.2-0.2-0.5-0.4-0.8-0.4c-0.3,0-0.6,0.1-0.8,0.4
		C492.6,183.1,492.5,183.5,492.5,183.9L492.5,183.9z"/>
	<path class="st0" d="M496.2,185.9V182h0.6v0.5c0.3-0.4,0.7-0.6,1.2-0.6c0.2,0,0.4,0,0.6,0.1c0.2,0.1,0.3,0.2,0.4,0.3
		c0.1,0.1,0.2,0.3,0.2,0.5c0,0.1,0,0.3,0,0.6v2.3h-0.6v-2.3c0-0.3,0-0.5-0.1-0.6c0-0.1-0.1-0.2-0.3-0.3c-0.1-0.1-0.3-0.1-0.4-0.1
		c-0.3,0-0.5,0.1-0.7,0.3c-0.2,0.2-0.3,0.5-0.3,1v2.1H496.2L496.2,185.9z"/>
	<path class="st2" d="M502.7,185.4c-0.2,0.2-0.5,0.3-0.7,0.4c-0.2,0.1-0.5,0.1-0.7,0.1c-0.4,0-0.7-0.1-1-0.3
		c-0.2-0.2-0.3-0.5-0.3-0.8c0-0.2,0-0.4,0.1-0.5c0.1-0.2,0.2-0.3,0.3-0.4c0.1-0.1,0.3-0.2,0.5-0.2c0.1,0,0.3-0.1,0.6-0.1
		c0.5-0.1,0.9-0.1,1.1-0.2c0-0.1,0-0.1,0-0.2c0-0.3-0.1-0.4-0.2-0.6c-0.2-0.1-0.4-0.2-0.7-0.2c-0.3,0-0.5,0.1-0.7,0.2
		c-0.1,0.1-0.2,0.3-0.3,0.6l-0.6-0.1c0.1-0.3,0.2-0.5,0.3-0.7c0.1-0.2,0.3-0.3,0.6-0.4c0.2-0.1,0.5-0.1,0.9-0.1c0.3,0,0.6,0,0.8,0.1
		c0.2,0.1,0.4,0.2,0.4,0.3c0.1,0.1,0.2,0.3,0.2,0.4c0,0.1,0,0.3,0,0.6v0.9c0,0.6,0,1,0,1.1c0,0.2,0.1,0.3,0.2,0.5h-0.7
		C502.8,185.7,502.8,185.6,502.7,185.4L502.7,185.4z M502.7,183.9c-0.2,0.1-0.6,0.2-1.1,0.2c-0.3,0-0.5,0.1-0.6,0.1
		c-0.1,0-0.2,0.1-0.3,0.2c-0.1,0.1-0.1,0.2-0.1,0.3c0,0.2,0.1,0.3,0.2,0.4c0.1,0.1,0.3,0.2,0.6,0.2c0.2,0,0.5-0.1,0.7-0.2
		c0.2-0.1,0.3-0.3,0.4-0.4c0.1-0.1,0.1-0.4,0.1-0.6V183.9L502.7,183.9z"/>
	<polygon class="st0" points="504.3,185.9 504.3,180.6 505,180.6 505,185.9 504.3,185.9 	"/>
	<path class="st2" d="M508.1,185.9v-5.2h2.3c0.5,0,0.8,0,1.1,0.1c0.2,0.1,0.4,0.3,0.6,0.5c0.1,0.2,0.2,0.5,0.2,0.8
		c0,0.4-0.1,0.7-0.4,0.9c-0.2,0.3-0.6,0.4-1.1,0.5c0.2,0.1,0.3,0.2,0.4,0.3c0.2,0.2,0.4,0.4,0.6,0.7l0.9,1.4h-0.9l-0.7-1.1
		c-0.2-0.3-0.4-0.6-0.5-0.7c-0.1-0.2-0.2-0.3-0.4-0.4c-0.1-0.1-0.2-0.1-0.3-0.1c-0.1,0-0.2,0-0.4,0h-0.8v2.3H508.1L508.1,185.9z
		 M508.8,182.9h1.5c0.3,0,0.6,0,0.7-0.1c0.2-0.1,0.3-0.2,0.4-0.3c0.1-0.1,0.1-0.3,0.1-0.5c0-0.2-0.1-0.5-0.3-0.6
		c-0.2-0.2-0.5-0.2-0.9-0.2h-1.7V182.9L508.8,182.9z"/>
	<path class="st2" d="M515.9,184.6l0.7,0.1c-0.1,0.4-0.3,0.7-0.6,0.9c-0.3,0.2-0.6,0.3-1.1,0.3c-0.6,0-1-0.2-1.3-0.5
		c-0.3-0.3-0.5-0.8-0.5-1.4c0-0.6,0.2-1.1,0.5-1.5c0.3-0.4,0.8-0.5,1.3-0.5c0.5,0,0.9,0.2,1.2,0.5c0.3,0.3,0.5,0.8,0.5,1.5
		c0,0,0,0.1,0,0.2h-2.8c0,0.4,0.1,0.7,0.4,1c0.2,0.2,0.5,0.3,0.8,0.3c0.2,0,0.4-0.1,0.6-0.2C515.7,185.1,515.8,184.9,515.9,184.6
		L515.9,184.6z M513.8,183.6h2.1c0-0.3-0.1-0.6-0.2-0.7c-0.2-0.2-0.5-0.4-0.8-0.4c-0.3,0-0.5,0.1-0.7,0.3
		C513.9,183,513.8,183.3,513.8,183.6L513.8,183.6z"/>
	<path class="st2" d="M517.3,186.2l0.6,0.1c0,0.2,0.1,0.3,0.2,0.4c0.2,0.1,0.4,0.2,0.7,0.2c0.3,0,0.5-0.1,0.7-0.2
		c0.2-0.1,0.3-0.3,0.3-0.5c0-0.1,0-0.4,0-0.8c-0.3,0.3-0.6,0.5-1.1,0.5c-0.5,0-0.9-0.2-1.2-0.6c-0.3-0.4-0.4-0.8-0.4-1.4
		c0-0.4,0.1-0.7,0.2-1c0.1-0.3,0.3-0.5,0.6-0.7c0.3-0.2,0.5-0.3,0.9-0.3c0.4,0,0.8,0.2,1.1,0.5V182h0.6v3.3c0,0.6-0.1,1-0.2,1.3
		c-0.1,0.2-0.3,0.4-0.6,0.6c-0.3,0.1-0.6,0.2-1,0.2c-0.5,0-0.8-0.1-1.1-0.3C517.4,186.9,517.3,186.6,517.3,186.2L517.3,186.2z
		 M517.8,183.9c0,0.5,0.1,0.9,0.3,1.1c0.2,0.2,0.4,0.3,0.7,0.3c0.3,0,0.5-0.1,0.7-0.3c0.2-0.2,0.3-0.6,0.3-1.1
		c0-0.5-0.1-0.8-0.3-1.1c-0.2-0.2-0.5-0.4-0.7-0.4c-0.3,0-0.5,0.1-0.7,0.3C517.9,183.1,517.8,183.4,517.8,183.9L517.8,183.9z"/>
	<path class="st2" d="M521.5,181.3v-0.7h0.6v0.7H521.5L521.5,181.3z M521.5,185.9V182h0.6v3.8H521.5L521.5,185.9z"/>
	<path class="st2" d="M522.8,183.9c0-0.7,0.2-1.2,0.6-1.6c0.3-0.3,0.7-0.4,1.2-0.4c0.5,0,0.9,0.2,1.3,0.5c0.3,0.3,0.5,0.8,0.5,1.4
		c0,0.5-0.1,0.9-0.2,1.2c-0.1,0.3-0.4,0.5-0.6,0.7c-0.3,0.2-0.6,0.2-0.9,0.2c-0.5,0-1-0.2-1.3-0.5
		C523,185.1,522.8,184.6,522.8,183.9L522.8,183.9z M523.5,183.9c0,0.5,0.1,0.9,0.3,1.1c0.2,0.2,0.5,0.4,0.8,0.4
		c0.3,0,0.6-0.1,0.8-0.4c0.2-0.2,0.3-0.6,0.3-1.1c0-0.5-0.1-0.8-0.3-1.1c-0.2-0.2-0.5-0.4-0.8-0.4c-0.3,0-0.6,0.1-0.8,0.4
		C523.6,183.1,523.5,183.5,523.5,183.9L523.5,183.9z"/>
	<path class="st0" d="M527.2,185.9V182h0.6v0.5c0.3-0.4,0.7-0.6,1.2-0.6c0.2,0,0.4,0,0.6,0.1c0.2,0.1,0.3,0.2,0.4,0.3
		c0.1,0.1,0.2,0.3,0.2,0.5c0,0.1,0,0.3,0,0.6v2.3h-0.6v-2.3c0-0.3,0-0.5-0.1-0.6c0-0.1-0.1-0.2-0.3-0.3c-0.1-0.1-0.3-0.1-0.4-0.1
		c-0.3,0-0.5,0.1-0.7,0.3c-0.2,0.2-0.3,0.5-0.3,1v2.1H527.2L527.2,185.9z"/>
	<path class="st2" d="M533.7,185.4c-0.2,0.2-0.5,0.3-0.7,0.4c-0.2,0.1-0.5,0.1-0.7,0.1c-0.4,0-0.7-0.1-1-0.3
		c-0.2-0.2-0.3-0.5-0.3-0.8c0-0.2,0-0.4,0.1-0.5c0.1-0.2,0.2-0.3,0.3-0.4c0.1-0.1,0.3-0.2,0.5-0.2c0.1,0,0.3-0.1,0.6-0.1
		c0.5-0.1,0.9-0.1,1.1-0.2c0-0.1,0-0.1,0-0.2c0-0.3-0.1-0.4-0.2-0.6c-0.2-0.1-0.4-0.2-0.7-0.2c-0.3,0-0.5,0.1-0.7,0.2
		c-0.1,0.1-0.2,0.3-0.3,0.6l-0.6-0.1c0.1-0.3,0.2-0.5,0.3-0.7c0.1-0.2,0.3-0.3,0.6-0.4c0.2-0.1,0.5-0.1,0.9-0.1c0.3,0,0.6,0,0.8,0.1
		c0.2,0.1,0.4,0.2,0.4,0.3c0.1,0.1,0.2,0.3,0.2,0.4c0,0.1,0,0.3,0,0.6v0.9c0,0.6,0,1,0,1.1c0,0.2,0.1,0.3,0.2,0.5h-0.7
		C533.8,185.7,533.7,185.6,533.7,185.4L533.7,185.4z M533.7,183.9c-0.2,0.1-0.6,0.2-1.1,0.2c-0.3,0-0.5,0.1-0.6,0.1
		c-0.1,0-0.2,0.1-0.3,0.2c-0.1,0.1-0.1,0.2-0.1,0.3c0,0.2,0.1,0.3,0.2,0.4c0.1,0.1,0.3,0.2,0.6,0.2c0.2,0,0.5-0.1,0.7-0.2
		c0.2-0.1,0.3-0.3,0.4-0.4c0.1-0.1,0.1-0.4,0.1-0.6V183.9L533.7,183.9z"/>
	<polygon class="st0" points="535.3,185.9 535.3,180.6 536,180.6 536,185.9 535.3,185.9 	"/>
	<path class="st2" d="M541.5,185.9v-0.5c-0.2,0.4-0.6,0.6-1.1,0.6c-0.3,0-0.6-0.1-0.8-0.3c-0.3-0.2-0.5-0.4-0.6-0.7
		c-0.1-0.3-0.2-0.6-0.2-1c0-0.4,0.1-0.7,0.2-1c0.1-0.3,0.3-0.5,0.6-0.7c0.3-0.2,0.5-0.2,0.8-0.2c0.2,0,0.4,0,0.6,0.1
		c0.2,0.1,0.3,0.2,0.4,0.4v-1.9h0.6v5.2H541.5L541.5,185.9z M539.4,184c0,0.5,0.1,0.9,0.3,1.1c0.2,0.2,0.4,0.4,0.7,0.4
		c0.3,0,0.5-0.1,0.7-0.3c0.2-0.2,0.3-0.6,0.3-1.1c0-0.5-0.1-0.9-0.3-1.1c-0.2-0.2-0.4-0.4-0.7-0.4c-0.3,0-0.5,0.1-0.7,0.3
		C539.5,183.1,539.4,183.4,539.4,184L539.4,184z"/>
	<path class="st2" d="M542.8,183.9c0-0.7,0.2-1.2,0.6-1.6c0.3-0.3,0.7-0.4,1.2-0.4c0.5,0,0.9,0.2,1.3,0.5c0.3,0.3,0.5,0.8,0.5,1.4
		c0,0.5-0.1,0.9-0.2,1.2c-0.1,0.3-0.4,0.5-0.6,0.7c-0.3,0.2-0.6,0.2-0.9,0.2c-0.5,0-1-0.2-1.3-0.5
		C543,185.1,542.8,184.6,542.8,183.9L542.8,183.9z M543.5,183.9c0,0.5,0.1,0.9,0.3,1.1c0.2,0.2,0.5,0.4,0.8,0.4
		c0.3,0,0.6-0.1,0.8-0.4c0.2-0.2,0.3-0.6,0.3-1.1c0-0.5-0.1-0.8-0.3-1.1c-0.2-0.2-0.5-0.4-0.8-0.4c-0.3,0-0.6,0.1-0.8,0.4
		C543.6,183.1,543.5,183.5,543.5,183.9L543.5,183.9z"/>
	<path class="st0" d="M553,184l0.7,0.2c-0.1,0.6-0.4,1-0.8,1.3c-0.4,0.3-0.8,0.4-1.4,0.4c-0.6,0-1-0.1-1.4-0.3
		c-0.4-0.2-0.6-0.6-0.8-1c-0.2-0.4-0.3-0.9-0.3-1.4c0-0.5,0.1-1,0.3-1.4c0.2-0.4,0.5-0.7,0.9-0.9c0.4-0.2,0.8-0.3,1.3-0.3
		c0.5,0,1,0.1,1.3,0.4c0.4,0.3,0.6,0.6,0.7,1.1l-0.7,0.2c-0.1-0.4-0.3-0.7-0.5-0.8c-0.2-0.2-0.5-0.3-0.9-0.3c-0.4,0-0.7,0.1-1,0.3
		c-0.3,0.2-0.5,0.5-0.6,0.8c-0.1,0.3-0.2,0.7-0.2,1c0,0.4,0.1,0.8,0.2,1.2c0.1,0.3,0.3,0.6,0.6,0.7c0.3,0.2,0.6,0.2,0.9,0.2
		c0.4,0,0.7-0.1,1-0.3C552.7,184.8,552.9,184.5,553,184L553,184z"/>
	<path class="st2" d="M557.1,184.6l0.7,0.1c-0.1,0.4-0.3,0.7-0.6,0.9c-0.3,0.2-0.6,0.3-1.1,0.3c-0.6,0-1-0.2-1.3-0.5
		c-0.3-0.3-0.5-0.8-0.5-1.4c0-0.6,0.2-1.1,0.5-1.5c0.3-0.4,0.8-0.5,1.3-0.5c0.5,0,0.9,0.2,1.2,0.5s0.5,0.8,0.5,1.5c0,0,0,0.1,0,0.2
		h-2.8c0,0.4,0.1,0.7,0.4,1c0.2,0.2,0.5,0.3,0.8,0.3c0.2,0,0.4-0.1,0.6-0.2C556.8,185.1,557,184.9,557.1,184.6L557.1,184.6z
		 M555,183.6h2.1c0-0.3-0.1-0.6-0.2-0.7c-0.2-0.2-0.5-0.4-0.8-0.4c-0.3,0-0.5,0.1-0.7,0.3C555.1,183,555,183.3,555,183.6L555,183.6z
		"/>
	<path class="st0" d="M558.6,185.9V182h0.6v0.5c0.3-0.4,0.7-0.6,1.2-0.6c0.2,0,0.4,0,0.6,0.1c0.2,0.1,0.3,0.2,0.4,0.3
		c0.1,0.1,0.2,0.3,0.2,0.5c0,0.1,0,0.3,0,0.6v2.3H561v-2.3c0-0.3,0-0.5-0.1-0.6c-0.1-0.1-0.1-0.2-0.3-0.3c-0.1-0.1-0.3-0.1-0.4-0.1
		c-0.3,0-0.5,0.1-0.7,0.3c-0.2,0.2-0.3,0.5-0.3,1v2.1H558.6L558.6,185.9z"/>
	<path class="st0" d="M564,185.3l0.1,0.6c-0.2,0-0.3,0.1-0.5,0.1c-0.2,0-0.4,0-0.5-0.1c-0.1-0.1-0.2-0.2-0.3-0.3
		c-0.1-0.1-0.1-0.4-0.1-0.8v-2.2h-0.5V182h0.5v-0.9l0.6-0.4v1.3h0.6v0.5h-0.6v2.2c0,0.2,0,0.3,0,0.4c0,0.1,0.1,0.1,0.1,0.1
		c0.1,0,0.1,0,0.2,0C563.8,185.3,563.9,185.3,564,185.3L564,185.3z"/>
	<path class="st0" d="M564.7,185.9V182h0.6v0.6c0.1-0.3,0.3-0.4,0.4-0.5c0.1-0.1,0.3-0.1,0.4-0.1c0.2,0,0.4,0.1,0.7,0.2l-0.2,0.6
		c-0.2-0.1-0.3-0.1-0.5-0.1c-0.1,0-0.3,0-0.4,0.1c-0.1,0.1-0.2,0.2-0.2,0.4c-0.1,0.2-0.1,0.5-0.1,0.8v2H564.7L564.7,185.9z"/>
	<path class="st2" d="M566.9,183.9c0-0.7,0.2-1.2,0.6-1.6c0.3-0.3,0.7-0.4,1.2-0.4c0.5,0,0.9,0.2,1.3,0.5c0.3,0.3,0.5,0.8,0.5,1.4
		c0,0.5-0.1,0.9-0.2,1.2c-0.1,0.3-0.4,0.5-0.6,0.7c-0.3,0.2-0.6,0.2-0.9,0.2c-0.5,0-1-0.2-1.3-0.5
		C567,185.1,566.9,184.6,566.9,183.9L566.9,183.9z M567.5,183.9c0,0.5,0.1,0.9,0.3,1.1c0.2,0.2,0.5,0.4,0.8,0.4
		c0.3,0,0.6-0.1,0.8-0.4c0.2-0.2,0.3-0.6,0.3-1.1c0-0.5-0.1-0.8-0.3-1.1c-0.2-0.2-0.5-0.4-0.8-0.4c-0.3,0-0.6,0.1-0.8,0.4
		C567.6,183.1,567.5,183.5,567.5,183.9L567.5,183.9z"/>
	<path class="st0" d="M432.6,144.6v-13.1h2v1.8c0.4-0.6,1-1.2,1.6-1.5c0.7-0.4,1.5-0.6,2.3-0.6c1,0,1.8,0.2,2.4,0.6
		c0.6,0.4,1.1,1,1.3,1.7c1-1.5,2.4-2.3,4.1-2.3c1.3,0,2.3,0.4,3,1.1c0.7,0.7,1.1,1.8,1.1,3.3v9h-2.2v-8.3c0-0.9-0.1-1.5-0.2-1.9
		c-0.1-0.4-0.4-0.7-0.8-1c-0.4-0.2-0.8-0.4-1.3-0.4c-0.9,0-1.7,0.3-2.3,0.9c-0.6,0.6-0.9,1.6-0.9,2.9v7.6h-2.2V136
		c0-1-0.2-1.7-0.5-2.2c-0.4-0.5-1-0.7-1.8-0.7c-0.6,0-1.2,0.2-1.7,0.5c-0.5,0.3-0.9,0.8-1.2,1.4c-0.2,0.6-0.4,1.6-0.4,2.7v6.8H432.6
		L432.6,144.6z"/>
	<path class="st2" d="M462.9,143c-0.8,0.7-1.6,1.2-2.4,1.5c-0.8,0.3-1.6,0.4-2.4,0.4c-1.4,0-2.6-0.4-3.3-1.1
		c-0.8-0.7-1.2-1.6-1.2-2.7c0-0.6,0.1-1.2,0.4-1.8c0.3-0.5,0.7-1,1.2-1.3c0.5-0.3,1-0.6,1.6-0.7c0.4-0.1,1.1-0.2,2-0.3
		c1.8-0.2,3.1-0.5,4-0.8c0-0.3,0-0.5,0-0.6c0-0.9-0.2-1.5-0.6-1.9c-0.6-0.5-1.4-0.8-2.5-0.8c-1,0-1.8,0.2-2.3,0.6
		c-0.5,0.4-0.9,1-1.1,1.9l-2.2-0.3c0.2-0.9,0.5-1.7,1-2.3c0.5-0.6,1.1-1,2-1.3c0.9-0.3,1.9-0.5,3-0.5c1.1,0,2,0.1,2.7,0.4
		c0.7,0.3,1.2,0.6,1.5,1c0.3,0.4,0.6,0.9,0.7,1.5c0.1,0.4,0.1,1.1,0.1,2.1v3c0,2.1,0,3.4,0.1,3.9c0.1,0.5,0.3,1.1,0.6,1.6h-2.3
		C463.1,144.1,463,143.6,462.9,143L462.9,143z M462.7,138c-0.8,0.3-2,0.6-3.6,0.8c-0.9,0.1-1.6,0.3-1.9,0.4
		c-0.4,0.2-0.7,0.4-0.9,0.7c-0.2,0.3-0.3,0.7-0.3,1.1c0,0.6,0.2,1.1,0.7,1.5c0.5,0.4,1.1,0.6,2,0.6c0.9,0,1.6-0.2,2.3-0.6
		c0.7-0.4,1.2-0.9,1.5-1.5c0.2-0.5,0.4-1.2,0.4-2.2V138L462.7,138z"/>
	<path class="st2" d="M469,129v-2.6h2.2v2.6H469L469,129z M469,144.6v-13.1h2.2v13.1H469L469,144.6z"/>
	<path class="st0" d="M474.4,140.7l2.2-0.3c0.1,0.9,0.5,1.6,1,2c0.6,0.5,1.4,0.7,2.4,0.7c1,0,1.8-0.2,2.3-0.6
		c0.5-0.4,0.7-0.9,0.7-1.5c0-0.5-0.2-0.9-0.7-1.2c-0.3-0.2-1.1-0.4-2.3-0.8c-1.6-0.4-2.8-0.8-3.4-1.1c-0.6-0.3-1.1-0.7-1.4-1.2
		c-0.3-0.5-0.5-1.1-0.5-1.8c0-0.6,0.1-1.1,0.4-1.6c0.3-0.5,0.6-0.9,1.1-1.2c0.3-0.3,0.8-0.5,1.4-0.6c0.6-0.2,1.2-0.3,1.9-0.3
		c1,0,1.9,0.1,2.7,0.4c0.8,0.3,1.4,0.7,1.7,1.2c0.4,0.5,0.6,1.2,0.8,2l-2.2,0.3c-0.1-0.7-0.4-1.2-0.9-1.6c-0.5-0.4-1.1-0.6-2-0.6
		c-1,0-1.8,0.2-2.2,0.5c-0.4,0.3-0.7,0.7-0.7,1.2c0,0.3,0.1,0.5,0.3,0.8c0.2,0.2,0.5,0.4,0.9,0.6c0.2,0.1,0.9,0.3,2,0.6
		c1.6,0.4,2.7,0.8,3.3,1c0.6,0.3,1.1,0.7,1.5,1.2c0.4,0.5,0.5,1.1,0.5,1.9c0,0.7-0.2,1.4-0.7,2.1c-0.4,0.7-1.1,1.2-1.9,1.5
		c-0.8,0.4-1.7,0.5-2.8,0.5c-1.7,0-3-0.4-3.9-1.1C475.2,143.1,474.6,142.1,474.4,140.7L474.4,140.7z"/>
	<path class="st0" d="M446.2,164.6l2.4,0.6c-0.5,2-1.4,3.5-2.7,4.5c-1.3,1-2.9,1.5-4.8,1.5c-2,0-3.5-0.4-4.8-1.2
		c-1.2-0.8-2.2-2-2.8-3.5c-0.6-1.5-1-3.1-1-4.9c0-1.9,0.4-3.5,1.1-4.9c0.7-1.4,1.8-2.5,3.1-3.2c1.3-0.7,2.8-1.1,4.4-1.1
		c1.8,0,3.3,0.5,4.6,1.4c1.2,0.9,2.1,2.2,2.6,3.9l-2.4,0.6c-0.4-1.3-1-2.3-1.8-2.9c-0.8-0.6-1.8-0.9-3-0.9c-1.4,0-2.6,0.3-3.5,1
		c-0.9,0.7-1.6,1.6-2,2.7c-0.4,1.1-0.6,2.3-0.6,3.5c0,1.5,0.2,2.9,0.7,4c0.5,1.1,1.2,2,2.1,2.6c0.9,0.6,2,0.9,3.1,0.9
		c1.3,0,2.5-0.4,3.4-1.2C445.2,167.2,445.9,166.1,446.2,164.6L446.2,164.6z"/>
	<polygon class="st0" points="451.6,170.9 451.6,152.8 464.7,152.8 464.7,154.9 454,154.9 454,160.5 464.1,160.5 464.1,162.6 
		454,162.6 454,168.8 465.2,168.8 465.2,170.9 451.6,170.9 	"/>
	<polygon class="st0" points="468.5,170.9 468.5,152.8 470.9,152.8 480.5,167 480.5,152.8 482.8,152.8 482.8,170.9 480.3,170.9 
		470.8,156.7 470.8,170.9 468.5,170.9 	"/>
	<polygon class="st0" points="491.4,170.9 491.4,154.9 485.5,154.9 485.5,152.8 499.8,152.8 499.8,154.9 493.8,154.9 493.8,170.9 
		491.4,170.9 	"/>
	<path class="st2" d="M529.9,162.1c0-3,0.8-5.4,2.4-7.1c1.6-1.7,3.7-2.6,6.3-2.6c1.7,0,3.2,0.4,4.5,1.2c1.3,0.8,2.4,1.9,3.1,3.4
		c0.7,1.4,1.1,3,1.1,4.9c0,1.8-0.4,3.5-1.1,4.9c-0.7,1.5-1.8,2.6-3.2,3.3c-1.4,0.7-2.8,1.1-4.4,1.1c-1.7,0-3.2-0.4-4.6-1.2
		c-1.3-0.8-2.4-2-3.1-3.4C530.2,165.2,529.9,163.7,529.9,162.1L529.9,162.1z M532.3,162.1c0,2.2,0.6,3.9,1.8,5.2
		c1.2,1.3,2.7,1.9,4.4,1.9c1.8,0,3.3-0.6,4.5-1.9c1.2-1.3,1.8-3.1,1.8-5.4c0-1.5-0.3-2.8-0.8-3.9c-0.5-1.1-1.2-2-2.2-2.6
		c-1-0.6-2-0.9-3.2-0.9c-1.7,0-3.2,0.6-4.4,1.8C532.9,157.4,532.3,159.4,532.3,162.1L532.3,162.1z"/>
	<path class="st0" d="M501.3,147.3h15.2c0,0,6.7-0.8,10,3.5c3.5,6-0.4,10.6-0.4,10.6c-2.1,2.3-6,2.8-6,2.8l9.5,12.4h-5.3l-8.8-11.7
		h-14.2v-3.4h15.2c0,0,2.2,0,3.6-0.5c0.9-0.3,2.1-0.9,2.9-2.2c0.7-1.1,0.7-2.5,0.7-2.9c0-0.3,0-1.7-1.1-3.3
		c-0.5-0.7-1.3-1.3-2.5-1.6c-1.1-0.3-3.6-0.2-3.6-0.2h-15.2V147.3L501.3,147.3z"/>
	<line class="st3" x1="423.6" y1="131.2" x2="423.6" y2="171.3"/>
</g>
</svg>
