<?xml version="1.0" encoding="utf-8"?>
<!-- Generator: Adobe Illustrator 19.0.0, SVG Export Plug-In . SVG Version: 6.00 Build 0)  -->
<!DOCTYPE svg PUBLIC "-//W3C//DTD SVG 1.1//EN" "http://www.w3.org/Graphics/SVG/1.1/DTD/svg11.dtd">
<svg version="1.1" id="Layer_1" xmlns="http://www.w3.org/2000/svg" xmlns:xlink="http://www.w3.org/1999/xlink" x="0px" y="0px"
	 viewBox="0 0 504.7 91.1" style="enable-background:new 0 0 504.7 91.1;" xml:space="preserve">
<style type="text/css">
	.st0{fill-rule:evenodd;clip-rule:evenodd;fill:#0E1131;}
	.st1{fill-rule:evenodd;clip-rule:evenodd;fill:#FFFFFF;}
	.st2{fill:#0E1131;}
</style>
<g id="XMLID_542_">
	<rect id="XMLID_244_" x="17.7" y="13.6" class="st0" width="98.1" height="63.4"/>
	<path id="XMLID_543_" class="st1" d="M65.4,24.7l-1.8-1.5h2.5l0.7-2.2l0.9,2.2h2.3l-1.8,1.5l0.7,2.2l-2-1.3l-1.8,1.3L65.4,24.7
		L65.4,24.7z M76,27.3l-1.8-1.5h2.5l0.7-2.2l0.9,2.2l2.3,0.2l-1.8,1.3l0.7,2.4l-2-1.5l-2,1.3L76,27.3L76,27.3z M83.3,35l-1.8-1.3
		l2.3-0.2l0.9-2.2l0.7,2.2l2.5,0.2L86,35l0.7,2.4l-2-1.3l-2,1.3L83.3,35L83.3,35z M87.4,45.6l-2-1.3l2.5-0.2l0.9-2.2l0.7,2.2
		l2.5,0.2l-1.8,1.3l0.7,2.4l-2-1.3l-2,1.3L87.4,45.6L87.4,45.6z M83.8,56.3l-1.8-1.5h2.5l0.7-2.4l0.9,2.4h2.3l-1.8,1.5l0.7,2.2
		l-2-1.3l-1.8,1.3L83.8,56.3L83.8,56.3z M76.7,63.8l-2-1.3l2.5-0.2l0.9-2.2l0.7,2.2l2.5,0.2l-1.8,1.3l0.7,2.4l-2-1.3l-2,1.3
		L76.7,63.8L76.7,63.8z M65.6,67.3l-2-1.5h2.5l0.9-2.4l0.7,2.4h2.5l-2,1.5l0.9,2.2l-2-1.3l-2,1.3L65.6,67.3L65.6,67.3z M54.5,64.2
		l-1.8-1.5h2.5l0.7-2.4l0.9,2.4H59l-1.8,1.5l0.7,2.2l-2-1.3L54,66.4L54.5,64.2L54.5,64.2z M47.4,56.7l-2-1.5h2.5l0.7-2.4l0.9,2.4H52
		l-2,1.5l0.7,2.2l-2-1.3l-1.8,1.3L47.4,56.7L47.4,56.7z M43.4,45.9l-1.8-1.3l2.5-0.2l0.7-2.2l0.9,2.2l2.3,0.2l-1.8,1.3l0.7,2.2
		l-2-1.3l-1.8,1.3L43.4,45.9L43.4,45.9z M47.2,35.5l-1.8-1.3l2.3-0.2l0.9-2.2l0.7,2.2l2.5,0.2l-1.8,1.3l0.7,2.4l-2-1.3l-2,1.3
		L47.2,35.5L47.2,35.5z M54.2,27.5l-1.8-1.3l2.3-0.2l0.9-2.2l0.9,2.2l2.3,0.2L57,27.5l0.7,2.4l-2-1.3l-2,1.3L54.2,27.5z"/>
</g>
<g id="XMLID_511_">
	<path id="XMLID_231_" class="st2" d="M326.5,25.9v22.4c13.7,3.3,26.6-17,37.7-12.9v-4.2C355.6,24.3,336.2,23.5,326.5,25.9z"/>
	<path id="XMLID_230_" class="st2" d="M364.3,64.8V42.4c-13.7-3.3-26.6,17-37.7,12.9v4.2C335.2,66.3,354.6,67.1,364.3,64.8z"/>
	<rect id="XMLID_229_" x="371.8" y="34.2" class="st0" width="2" height="16.8"/>
	<path id="XMLID_228_" class="st0" d="M377.8,51V34.2h2.3l5.6,10.7c0.4,0.7,0.9,1.9,1.6,3.5c-0.1-1-0.1-2.7-0.2-5.1l-0.1-9.1h2V51
		h-2.1l-5.4-10.3c-0.9-1.8-1.6-3.1-1.9-4c0.1,1.5,0.2,3.1,0.2,4.6l0.1,9.7H377.8z"/>
	<polygon id="XMLID_227_" class="st0" points="400.1,51 400.1,34.2 402.1,34.2 402.1,49.3 408.8,49.3 408.5,51 	"/>
	<polygon id="XMLID_226_" class="st0" points="411.3,51 411.3,34.3 420.5,34.3 420.2,36 413.3,36 413.3,41.4 419.1,41.4 419.1,43.1 
		413.3,43.1 413.3,49.2 420.7,49.2 420.7,51 	"/>
	<path id="XMLID_225_" class="st0" d="M423.5,51V34.2h2.3l5.6,10.7c0.4,0.7,0.9,1.9,1.6,3.5c-0.1-1-0.1-2.7-0.2-5.1l-0.1-9.1h2V51
		h-2.1l-5.4-10.3c-0.9-1.8-1.6-3.1-1.9-4c0.1,1.5,0.2,3.1,0.2,4.6l0.1,9.7H423.5z"/>
	<polygon id="XMLID_224_" class="st0" points="437,35.9 437,34.2 448.2,34.2 448,35.9 443.5,35.9 443.5,51 441.6,51 441.6,35.9 	"/>
	<polygon id="XMLID_223_" class="st0" points="450.7,51 450.7,34.3 459.9,34.3 459.6,36 452.8,36 452.8,41.4 458.5,41.4 458.5,43.1 
		452.8,43.1 452.8,49.2 460.2,49.2 460.2,51 	"/>
	<path id="XMLID_222_" class="st0" d="M463.3,48.1v-14h2v13.9c0,0.6,0,1.2,0,1.8c0,0.8-0.2,1.5-0.6,2.1c-0.5,1-1.5,1.7-2.8,2.2
		l-1-1.2c1-0.4,1.6-0.9,2-1.6C463.2,50.7,463.3,49.7,463.3,48.1z"/>
	<path id="XMLID_529_" class="st0" d="M468.6,42.5c0-2.7,0.6-4.8,1.8-6.3c1.2-1.5,2.8-2.3,4.9-2.3c2.3,0,4.1,0.9,5.3,2.7
		c1,1.5,1.5,3.6,1.5,6.2c0,3.1-0.8,5.3-2.4,6.8c-1.2,1.1-2.6,1.6-4.3,1.6c-1.9,0-3.5-0.7-4.8-2.1C469.3,47.6,468.6,45.4,468.6,42.5z
		 M479,37.8c-0.7-1.5-2-2.3-3.7-2.3c-0.8,0-1.5,0.2-2.1,0.5c-0.6,0.4-1.1,0.8-1.5,1.4c-0.6,1.1-0.9,2.6-0.9,4.6
		c0,2.7,0.4,4.6,1.1,5.8c0.3,0.5,0.8,1,1.5,1.3c0.7,0.3,1.4,0.5,2.1,0.5c1.3,0,2.4-0.5,3.1-1.4c0.8-1,1.2-2.8,1.2-5.2
		C479.8,40.7,479.6,38.9,479,37.8z"/>
	<path id="XMLID_219_" class="st0" d="M370.7,64.7h4.3v-1.1h-2.9l2.4-3c0.2-0.2,0.3-0.4,0.3-0.6c0.1-0.2,0.1-0.4,0.1-0.7
		c0-0.6-0.2-1.1-0.6-1.5c-0.4-0.4-0.9-0.6-1.6-0.6c-0.6,0-1.1,0.2-1.5,0.6c-0.4,0.4-0.6,0.9-0.6,1.5h1.1c0-0.3,0.1-0.6,0.3-0.8
		c0.2-0.2,0.4-0.3,0.7-0.3c0.3,0,0.6,0.1,0.8,0.3c0.2,0.2,0.3,0.5,0.3,0.7c0,0.1,0,0.2,0,0.3c0,0.1-0.1,0.3-0.2,0.4l-2.9,3.7V64.7z"
		/>
	<path id="XMLID_525_" class="st0" d="M379,62.6c0,0.4-0.1,0.6-0.3,0.8c-0.2,0.2-0.4,0.3-0.8,0.3c-0.3,0-0.6-0.1-0.8-0.3
		c-0.2-0.2-0.3-0.5-0.3-0.8v-3.2c0-0.4,0.1-0.6,0.3-0.8c0.2-0.2,0.4-0.3,0.8-0.3c0.3,0,0.6,0.1,0.8,0.3c0.2,0.2,0.3,0.5,0.3,0.8
		V62.6z M375.8,62.7c0,0.5,0.1,0.9,0.3,1.2c0.2,0.3,0.5,0.6,0.8,0.7c0.3,0.2,0.7,0.3,1,0.3c0.4,0,0.7-0.1,1-0.3
		c0.3-0.2,0.6-0.4,0.8-0.7c0.2-0.3,0.3-0.7,0.3-1.2v-3.3c0-0.5-0.1-0.9-0.3-1.2c-0.2-0.3-0.5-0.6-0.8-0.7c-0.3-0.2-0.7-0.3-1-0.3
		c-0.4,0-0.7,0.1-1,0.3c-0.3,0.2-0.6,0.4-0.8,0.7c-0.2,0.3-0.3,0.7-0.3,1.2V62.7z"/>
	<path id="XMLID_522_" class="st0" d="M384,62.6c0,0.4-0.1,0.6-0.3,0.8c-0.2,0.2-0.4,0.3-0.8,0.3c-0.3,0-0.6-0.1-0.8-0.3
		c-0.2-0.2-0.3-0.5-0.3-0.8v-3.2c0-0.4,0.1-0.6,0.3-0.8c0.2-0.2,0.4-0.3,0.8-0.3c0.3,0,0.6,0.1,0.8,0.3c0.2,0.2,0.3,0.5,0.3,0.8
		V62.6z M380.9,62.7c0,0.5,0.1,0.9,0.3,1.2c0.2,0.3,0.5,0.6,0.8,0.7c0.3,0.2,0.7,0.3,1,0.3c0.4,0,0.7-0.1,1-0.3
		c0.3-0.2,0.6-0.4,0.8-0.7c0.2-0.3,0.3-0.7,0.3-1.2v-3.3c0-0.5-0.1-0.9-0.3-1.2c-0.2-0.3-0.5-0.6-0.8-0.7c-0.3-0.2-0.7-0.3-1-0.3
		c-0.4,0-0.7,0.1-1,0.3c-0.3,0.2-0.6,0.4-0.8,0.7c-0.2,0.3-0.3,0.7-0.3,1.2V62.7z"/>
	<polygon id="XMLID_214_" class="st0" points="386,58.3 389.1,58.3 386.6,64.7 387.8,64.7 390.3,58.3 390.3,57.3 386,57.3 	"/>
	<path id="XMLID_213_" class="st0" d="M390.8,64.1c0-0.2,0.1-0.4,0.2-0.5c0.1-0.1,0.3-0.2,0.5-0.2c0.2,0,0.4,0.1,0.5,0.2
		c0.1,0.1,0.2,0.3,0.2,0.5c0,0.2-0.1,0.4-0.2,0.5c-0.1,0.1-0.3,0.2-0.5,0.2c-0.2,0-0.4-0.1-0.5-0.2
		C390.9,64.5,390.8,64.3,390.8,64.1z"/>
	<path id="XMLID_212_" class="st0" d="M393.2,64.7h4.3v-1.1h-2.9l2.4-3c0.2-0.2,0.3-0.4,0.3-0.6c0.1-0.2,0.1-0.4,0.1-0.7
		c0-0.6-0.2-1.1-0.6-1.5c-0.4-0.4-0.9-0.6-1.6-0.6c-0.6,0-1.1,0.2-1.5,0.6c-0.4,0.4-0.6,0.9-0.6,1.5h1.1c0-0.3,0.1-0.6,0.4-0.8
		c0.2-0.2,0.4-0.3,0.7-0.3c0.3,0,0.6,0.1,0.8,0.3c0.2,0.2,0.3,0.5,0.3,0.7c0,0.1,0,0.2-0.1,0.3c0,0.1-0.1,0.3-0.2,0.4l-2.9,3.7V64.7
		z"/>
	<path id="XMLID_516_" class="st0" d="M401.4,62.6c0,0.4-0.1,0.6-0.3,0.8c-0.2,0.2-0.4,0.3-0.8,0.3c-0.3,0-0.6-0.1-0.8-0.3
		c-0.2-0.2-0.3-0.5-0.3-0.8v-3.2c0-0.4,0.1-0.6,0.3-0.8c0.2-0.2,0.4-0.3,0.8-0.3c0.3,0,0.6,0.1,0.8,0.3c0.2,0.2,0.3,0.5,0.3,0.8
		V62.6z M398.3,62.7c0,0.5,0.1,0.9,0.3,1.2c0.2,0.3,0.5,0.6,0.8,0.7c0.3,0.2,0.7,0.3,1,0.3c0.4,0,0.7-0.1,1-0.3
		c0.3-0.2,0.6-0.4,0.8-0.7c0.2-0.3,0.3-0.7,0.3-1.2v-3.3c0-0.5-0.1-0.9-0.3-1.2c-0.2-0.3-0.5-0.6-0.8-0.7c-0.3-0.2-0.7-0.3-1-0.3
		c-0.4,0-0.7,0.1-1,0.3c-0.3,0.2-0.6,0.4-0.8,0.7c-0.2,0.3-0.3,0.7-0.3,1.2V62.7z"/>
	<polygon id="XMLID_209_" class="st0" points="405,64.7 406,64.7 406,57.3 405,57.3 403.6,58.3 403.6,59.4 405,58.5 	"/>
	<path id="XMLID_208_" class="st0" d="M409.8,61.4h0.5c0.3,0,0.6,0.1,0.8,0.3c0.2,0.2,0.3,0.5,0.3,0.9c0,0.4-0.1,0.7-0.3,0.9
		c-0.2,0.2-0.5,0.3-0.8,0.3c-0.3,0-0.5-0.1-0.7-0.2c-0.2-0.2-0.3-0.4-0.4-0.6h-1.1c0.1,0.6,0.4,1.1,0.8,1.4c0.4,0.3,0.8,0.5,1.4,0.5
		c0.7,0,1.2-0.2,1.6-0.6c0.4-0.4,0.6-1,0.7-1.7c0-0.3-0.1-0.6-0.2-0.9c-0.1-0.3-0.4-0.5-0.7-0.7c0.3-0.2,0.5-0.4,0.6-0.7
		c0.1-0.3,0.2-0.5,0.2-0.8c0-0.4-0.1-0.7-0.3-1c-0.2-0.3-0.4-0.6-0.8-0.8c-0.3-0.2-0.7-0.3-1.2-0.3c-0.5,0-1,0.2-1.4,0.6
		c-0.4,0.4-0.6,0.8-0.7,1.4h1.1c0.1-0.3,0.2-0.5,0.4-0.7c0.2-0.1,0.4-0.2,0.6-0.2c0.3,0,0.6,0.1,0.8,0.3c0.2,0.2,0.3,0.5,0.3,0.8
		c0,0.3-0.1,0.6-0.3,0.8c-0.2,0.2-0.5,0.3-0.8,0.3h-0.4V61.4z"/>
	<rect id="XMLID_207_" x="403.6" y="63.7" class="st0" width="3.8" height="1.1"/>
	<polygon id="XMLID_206_" class="st0" points="391.1,44.1 393.7,44.1 391.1,35.9 391.1,34.2 392.5,34.2 398.1,51 395.8,51 
		394.2,45.8 391.1,45.8 	"/>
</g>
<g id="XMLID_402_">
	<path id="XMLID_505_" class="st2" d="M198.7,32.2c0.3,0,1.9,0,1.9,0c4.5,0,8.1-3.7,8.1-8.1c0-4.5-3.7-8.1-8.1-8.1h-18.9
		c-1,0-1.8,0.8-1.8,1.8c0,0,0,18.9,0,26.3l-5-5c2-2.5,3.2-5.7,3.2-9.2c0-8.2-6.7-14.9-14.9-14.9c-8.2,0-14.9,6.7-14.9,14.9
		c0,8.2,6.7,14.9,14.9,14.9c3.5,0,6.6-1.2,9.2-3.2l5,5c-7.4,0-26.3,0-26.3,0c-1,0-1.8,0.8-1.8,1.8v25.3c0,1,0.8,1.8,1.8,1.8h30.7
		c1,0,1.8-0.8,1.8-1.8c0,0,0-14.9,0-20.9c4.8,4.8,22.2,22.2,22.2,22.2c0.5,0.5,1.3,0.7,2,0.4c0.7-0.3,1.1-0.9,1.1-1.7V43
		c0-0.5-0.2-0.9-0.5-1.3C208.2,41.7,202.2,35.8,198.7,32.2z M183.4,19.6c3,0,17.1,0,17.1,0c2.5,0,4.5,2,4.5,4.5s-2,4.5-4.5,4.5
		c0,0-14.1,0-17.1,0C183.4,24.5,183.4,20.6,183.4,19.6z M163.1,41.2c-6.2,0-11.3-5.1-11.3-11.3c0-6.2,5.1-11.3,11.3-11.3
		c6.2,0,11.3,5.1,11.3,11.3c0,2.4-0.8,4.7-2.1,6.6l-7.4-7.4c-0.7-0.7-1.9-0.7-2.6,0c-0.7,0.7-0.7,1.9,0,2.6l7.4,7.4
		C167.8,40.4,165.5,41.2,163.1,41.2z M179.8,72c-3,0-24.1,0-27.1,0c0-1.3,0-5,0-9h18.9c1,0,1.8-0.8,1.8-1.8c0-1-0.8-1.8-1.8-1.8
		h-18.9c0-4,0-7.7,0-9c3,0,24.1,0,27.1,0C179.8,53.2,179.8,69.1,179.8,72z M205.1,69.4c-4.7-4.7-20.7-20.7-21.6-21.6
		c0-0.7,0-7.8,0-15.5c1.7,0,5.3,0,10.1,0c0.9,0.9,10.6,10.6,11.6,11.6C205.1,45,205.1,63.1,205.1,69.4z"/>
	<path id="XMLID_502_" class="st2" d="M221,22.5c0,2.5-0.4,4.2-2.7,4.3v0l3.9,0.9v0.4l-5.3-1.4c-1.8-0.5-2-2-2-4.2
		c0-2.6,0.4-4.3,3.1-4.3C220.7,18.2,221,20,221,22.5z M220.7,22.5c0-2.6-0.4-4-2.7-4c-2.3,0-2.7,1.4-2.7,4c0,2.6,0.4,4,2.7,4
		C220.3,26.5,220.7,25.2,220.7,22.5z"/>
	<path id="XMLID_198_" class="st2" d="M225.6,26.5c1.7,0,2.6-0.5,2.6-2.5v-5.7h0.4V24c0,2.3-1.3,2.8-2.9,2.8c-1.6,0-2.9-0.5-2.9-2.8
		v-5.8h0.4V24C223.1,26,224,26.5,225.6,26.5z"/>
	<path id="XMLID_498_" class="st2" d="M235.6,26.8l-0.9-2.5H231l-0.8,2.5h-0.4l3-8.6h0.2l3,8.6H235.6z M231.1,24h3.5l-1.8-5.2
		L231.1,24z"/>
	<path id="XMLID_495_" class="st2" d="M237.5,26.8v-8.5h2.5c2.7,0,3.3,1.6,3.3,4.3c0,2.7-0.6,4.3-3.3,4.3H237.5z M237.8,26.5h2
		c2.4,0,2.9-1.3,2.9-3.9s-0.6-3.9-2.9-3.9h-2V26.5z"/>
	<path id="XMLID_492_" class="st2" d="M245.3,26.8H245v-8.5h2.7c2.1,0,2.6,0.8,2.6,2.3c0,1.2-0.4,2-1.8,2.2l2.1,4h-0.4l-2.1-3.9
		c-0.1,0-0.3,0-0.4,0h-2.3V26.8z M247.8,22.5c1.8,0,2.1-0.9,2.1-2c0-1.1-0.3-2-2.1-2h-2.5v3.9H247.8z"/>
	<path id="XMLID_489_" class="st2" d="M258,22.5c0,2.6-0.4,4.3-3.1,4.3c-2.7,0-3.1-1.7-3.1-4.3c0-2.6,0.4-4.3,3.1-4.3
		C257.6,18.2,258,20,258,22.5z M257.6,22.5c0-2.6-0.4-4-2.7-4s-2.7,1.4-2.7,4c0,2.6,0.4,4,2.7,4S257.6,25.2,257.6,22.5z"/>
	<path id="XMLID_486_" class="st2" d="M215,40v-8.5h2.5c2.7,0,3.3,1.6,3.3,4.3c0,2.7-0.6,4.3-3.3,4.3H215z M215.4,39.7h2
		c2.4,0,2.9-1.3,2.9-3.9c0-2.6-0.6-3.9-2.9-3.9h-2V39.7z"/>
	<polygon id="XMLID_187_" class="st2" points="226.8,35.8 222.8,35.8 222.8,39.7 227.2,39.7 227.2,40 222.5,40 222.5,31.5 
		227.2,31.5 227.2,31.9 222.8,31.9 222.8,35.5 226.8,35.5 	"/>
	<path id="XMLID_482_" class="st2" d="M231.6,40h-0.4v-8.5h2.7c2.1,0,2.6,0.8,2.6,2.3c0,1.2-0.4,2-1.8,2.2l2.1,4h-0.4l-2.1-3.9
		c-0.1,0-0.3,0-0.4,0h-2.3V40z M234.1,35.8c1.8,0,2.1-0.9,2.1-2c0-1.1-0.3-2-2.1-2h-2.5v3.9H234.1z"/>
	<polygon id="XMLID_184_" class="st2" points="242.6,35.8 238.7,35.8 238.7,39.7 243,39.7 243,40 238.3,40 238.3,31.5 243,31.5 
		243,31.9 238.7,31.9 238.7,35.5 242.6,35.5 	"/>
	<polygon id="XMLID_183_" class="st2" points="248.9,35.8 245.1,35.8 245.1,40 244.7,40 244.7,31.5 249.3,31.5 249.3,31.9 
		245.1,31.9 245.1,35.5 248.9,35.5 	"/>
	<polygon id="XMLID_182_" class="st2" points="255.2,35.8 251.3,35.8 251.3,39.7 255.6,39.7 255.6,40 250.9,40 250.9,31.5 
		255.6,31.5 255.6,31.9 251.3,31.9 251.3,35.5 255.2,35.5 	"/>
	<path id="XMLID_476_" class="st2" d="M257.7,40h-0.4v-8.5h2.7c2.1,0,2.6,0.8,2.6,2.3c0,1.2-0.4,2-1.8,2.2l2.1,4h-0.4l-2.1-3.9
		c-0.1,0-0.3,0-0.4,0h-2.3V40z M260.2,35.8c1.8,0,2.1-0.9,2.1-2c0-1.1-0.3-2-2.1-2h-2.5v3.9H260.2z"/>
	<path id="XMLID_473_" class="st2" d="M268.7,35.8h-3.9v3.9h4.4V40h-4.7v-8.5h4.7v0.3h-4.4v3.6h3.9V35.8z M268.6,30.7l-1.6-2h-0.5
		l-1.6,2h0.3l1.6-1.6l1.6,1.6H268.6z"/>
	<polygon id="XMLID_177_" class="st2" points="276.3,40 271.1,32.3 271.2,40 270.8,40 270.8,31.5 271,31.5 276.1,39.2 276.1,31.5 
		276.5,31.5 276.5,40 	"/>
	<path id="XMLID_176_" class="st2" d="M278.2,35.8c0-2.7,0.8-4.3,3.3-4.3c1,0,1.6,0.1,2.1,0.3v0.4c-0.7-0.3-1.3-0.4-2.1-0.4
		c-2.1,0-2.9,1.3-2.9,4c0,2.7,0.8,4,2.9,4c0.8,0,1.4-0.1,2.1-0.4v0.4c-0.5,0.2-1.1,0.3-2.1,0.3C279,40.1,278.2,38.5,278.2,35.8z"/>
	<rect id="XMLID_175_" x="285.4" y="31.5" class="st2" width="0.4" height="8.5"/>
	<path id="XMLID_467_" class="st2" d="M293.2,40l-0.9-2.5h-3.7l-0.8,2.5h-0.4l3-8.6h0.2l3,8.6H293.2z M288.8,37.3h3.5l-1.8-5.2
		L288.8,37.3z"/>
	<polygon id="XMLID_172_" class="st2" points="219.3,49 215.4,49 215.4,52.9 219.7,52.9 219.7,53.3 215,53.3 215,44.8 219.7,44.8 
		219.7,45.1 215.4,45.1 215.4,48.7 219.3,48.7 	"/>
	<path id="XMLID_171_" class="st2" d="M224,44.7c1,0,1.6,0.1,2.1,0.3v0.4c-0.7-0.3-1.3-0.4-2.1-0.4c-1.9,0-2.4,0.9-2.4,1.9
		c0,1.4,0.6,1.6,2.4,1.8c1.8,0.2,2.6,0.4,2.6,2.2c0,1.1-0.6,2.4-3.1,2.4c-0.7,0-1.7-0.2-2.3-0.4v-0.3c0.5,0.2,1.2,0.4,2.3,0.4
		c2.1,0,2.7-0.9,2.7-2.1c0-1.4-0.4-1.7-2.3-1.9c-1.9-0.2-2.6-0.5-2.6-2.1C221.3,45.8,221.8,44.7,224,44.7z"/>
	<polygon id="XMLID_170_" class="st2" points="230.6,45.1 230.6,53.3 230.3,53.3 230.3,45.1 227.8,45.1 227.8,44.8 233.1,44.8 
		233.1,45.1 	"/>
	<path id="XMLID_461_" class="st2" d="M235,53.3h-0.4v-8.5h2.7c2.1,0,2.6,0.8,2.6,2.3c0,1.2-0.4,2-1.8,2.2l2.1,4h-0.4l-2.1-3.9
		c-0.1,0-0.3,0-0.4,0H235V53.3z M237.5,49c1.8,0,2.1-0.9,2.1-2c0-1.1-0.3-2-2.1-2H235V49H237.5z"/>
	<path id="XMLID_458_" class="st2" d="M247.3,53.3l-0.9-2.5h-3.7l-0.8,2.5h-0.4l3-8.6h0.2l3,8.6H247.3z M242.8,50.5h3.5l-1.8-5.2
		L242.8,50.5z"/>
	<polygon id="XMLID_165_" class="st2" points="250.6,45.1 250.6,53.3 250.2,53.3 250.2,45.1 247.7,45.1 247.7,44.8 253.1,44.8 
		253.1,45.1 	"/>
	<path id="XMLID_454_" class="st2" d="M258.9,49h-3.9v3.9h4.4v0.3h-4.7v-8.5h4.7v0.3h-4.4v3.6h3.9V49z M256.8,43.8l1.2-2h0.6l-1.5,2
		H256.8z"/>
	<path id="XMLID_162_" class="st2" d="M264,53c0.7,0,1.6-0.1,2.1-0.4v-3.3h-1.8V49h2.2v3.9c-0.6,0.2-1.4,0.4-2.5,0.4
		c-2.5,0-3.3-1.6-3.3-4.3c0-2.7,0.8-4.3,3.3-4.3c1.1,0,1.8,0.2,2.3,0.4v0.4c-0.7-0.3-1.4-0.4-2.3-0.4c-2.1,0-2.9,1.3-2.9,4
		C261,51.7,261.9,53,264,53z"/>
	<rect id="XMLID_161_" x="268.5" y="44.8" class="st2" width="0.4" height="8.5"/>
	<path id="XMLID_160_" class="st2" d="M270.7,49c0-2.7,0.8-4.3,3.3-4.3c1,0,1.6,0.1,2.1,0.3v0.4c-0.7-0.3-1.3-0.4-2.1-0.4
		c-2.1,0-2.9,1.3-2.9,4c0,2.7,0.8,4,2.9,4c0.8,0,1.4-0.1,2.1-0.4V53c-0.5,0.2-1.1,0.3-2.1,0.3C271.5,53.3,270.7,51.8,270.7,49z"/>
	<path id="XMLID_448_" class="st2" d="M283.5,49c0,2.6-0.4,4.3-3.1,4.3c-2.7,0-3.1-1.7-3.1-4.3s0.4-4.3,3.1-4.3
		C283.1,44.7,283.5,46.4,283.5,49z M283.1,49c0-2.6-0.4-4-2.7-4c-2.3,0-2.7,1.4-2.7,4c0,2.6,0.4,4,2.7,4
		C282.7,53,283.1,51.6,283.1,49z"/>
	<polygon id="XMLID_157_" class="st2" points="220.5,66.5 215.3,58.8 215.4,66.5 215,66.5 215,58 215.2,58 220.4,65.7 220.3,58 
		220.7,58 220.7,66.5 	"/>
	<path id="XMLID_444_" class="st2" d="M228.1,66.5l-0.9-2.5h-3.7l-0.8,2.5h-0.4l3-8.6h0.2l3,8.6H228.1z M223.6,63.7h3.5l-1.8-5.2
		L223.6,63.7z"/>
	<path id="XMLID_154_" class="st2" d="M229.5,62.3c0-2.7,0.8-4.3,3.3-4.3c1,0,1.6,0.1,2.1,0.3v0.4c-0.7-0.3-1.3-0.4-2.1-0.4
		c-2.1,0-2.9,1.3-2.9,4c0,2.7,0.8,4,2.9,4c0.8,0,1.4-0.1,2.1-0.4v0.4c-0.5,0.2-1.1,0.3-2.1,0.3C230.2,66.6,229.5,65,229.5,62.3z"/>
	<rect id="XMLID_153_" x="236.6" y="58" class="st2" width="0.4" height="8.5"/>
	<path id="XMLID_439_" class="st2" d="M245.1,62.3c0,2.6-0.4,4.3-3.1,4.3c-2.7,0-3.1-1.7-3.1-4.3c0-2.6,0.4-4.3,3.1-4.3
		C244.7,57.9,245.1,59.7,245.1,62.3z M244.7,62.3c0-2.6-0.4-4-2.7-4c-2.3,0-2.7,1.4-2.7,4c0,2.6,0.4,4,2.7,4
		C244.3,66.2,244.7,64.9,244.7,62.3z"/>
	<polygon id="XMLID_150_" class="st2" points="252.4,66.5 247.2,58.8 247.3,66.5 246.9,66.5 246.9,58 247.1,58 252.3,65.7 252.2,58 
		252.6,58 252.6,66.5 	"/>
	<path id="XMLID_435_" class="st2" d="M260,66.5l-0.9-2.5h-3.7l-0.8,2.5h-0.4l3-8.6h0.2l3,8.6H260z M255.5,63.7h3.5l-1.8-5.2
		L255.5,63.7z"/>
	<polygon id="XMLID_147_" class="st2" points="262.2,66.2 266.3,66.2 266.3,66.5 261.9,66.5 261.9,58 262.2,58 	"/>
	<path id="XMLID_431_" class="st2" d="M215.4,75H215v-3.8h1.2c1,0,1.3,0.5,1.3,1.1c0,0.6-0.3,1.1-1.3,1.1h-0.8V75z M215.4,73.2h0.8
		c0.7,0,0.9-0.4,0.9-0.8c0-0.4-0.1-0.8-0.9-0.8h-0.8V73.2z"/>
	<path id="XMLID_428_" class="st2" d="M219.6,75.1c-1.2,0-1.4-1-1.4-2c0-1,0.2-2,1.4-2c1.3,0,1.4,1,1.4,2
		C221,74.1,220.8,75.1,219.6,75.1z M219.6,71.5c-0.9,0-1,0.7-1,1.6s0.1,1.6,1,1.6c0.9,0,1-0.7,1-1.6S220.5,71.5,219.6,71.5z"/>
	<path id="XMLID_425_" class="st2" d="M222.3,75h-0.4v-3.8h1.2c0.9,0,1.2,0.4,1.2,1.1c0,0.5-0.2,0.9-0.7,1l0.9,1.7h-0.5l-0.8-1.7
		c-0.1,0-0.1,0-0.2,0h-0.8V75z M222.3,73h0.9c0.7,0,0.8-0.3,0.8-0.7c0-0.4-0.1-0.7-0.8-0.7h-0.9V73z"/>
	<polygon id="XMLID_140_" class="st2" points="226.4,71.6 226.4,75 226.1,75 226.1,71.6 225,71.6 225,71.2 227.5,71.2 227.5,71.6 	
		"/>
	<path id="XMLID_139_" class="st2" d="M230.6,73.8v-2.6h0.4v2.6c0,1.1-0.9,1.2-1.3,1.2c-0.5,0-1.3-0.2-1.3-1.2v-2.6h0.4v2.6
		c0,0.9,0.6,1,1,1C229.9,74.8,230.6,74.7,230.6,73.8z"/>
	<path id="XMLID_138_" class="st2" d="M233.3,75.1c-1.1,0-1.5-0.9-1.5-2c0-1.1,0.4-2,1.5-2c0.5,0,0.9,0.1,1.1,0.2v0.4
		c-0.4-0.2-0.7-0.2-1.1-0.2c-0.8,0-1.1,0.7-1.1,1.6c0,0.9,0.3,1.6,1.1,1.6c0.3,0,0.6,0,0.8-0.1v-1.3h-0.8V73h1.1v1.8
		C234.2,75,233.8,75.1,233.3,75.1z"/>
	<path id="XMLID_419_" class="st2" d="M237.8,75l-0.4-1.1h-1.5l-0.4,1.1h-0.4l1.3-3.9h0.3l1.3,3.9H237.8z M236,73.7h1.3l-0.6-1.9
		L236,73.7z"/>
	<polygon id="XMLID_135_" class="st2" points="239.3,74.7 241,74.7 241,75 238.9,75 238.9,71.2 239.3,71.2 	"/>
	<path id="XMLID_134_" class="st2" d="M242.9,71.8c-0.3,0-0.5,0-1,0.2v-0.7c0.3-0.1,0.6-0.2,1-0.2c1.1,0,1.2,0.6,1.2,1.1
		c0,0.3-0.2,0.6-0.5,1l-1.1,1.2h1.6V75h-2.5v-0.5l1.6-2c0.1-0.1,0.2-0.2,0.2-0.4C243.5,72,243.4,71.8,242.9,71.8z"/>
	<path id="XMLID_414_" class="st2" d="M244.7,73.1c0-1.6,0.3-2,1.3-2c0.9,0,1.3,0.4,1.3,2c0,1.6-0.3,2-1.3,2
		C245.1,75.1,244.7,74.7,244.7,73.1z M245.4,73.1c0,1.1,0.1,1.4,0.6,1.4c0.5,0,0.6-0.3,0.6-1.4c0-1.1-0.1-1.4-0.6-1.4
		C245.5,71.8,245.4,72.1,245.4,73.1z"/>
	<path id="XMLID_411_" class="st2" d="M247.9,73.1c0-1.6,0.3-2,1.3-2c0.9,0,1.3,0.4,1.3,2c0,1.6-0.3,2-1.3,2
		C248.2,75.1,247.9,74.7,247.9,73.1z M248.5,73.1c0,1.1,0.1,1.4,0.6,1.4c0.5,0,0.6-0.3,0.6-1.4c0-1.1-0.1-1.4-0.6-1.4
		C248.7,71.8,248.5,72.1,248.5,73.1z"/>
	<polygon id="XMLID_129_" class="st2" points="251.3,75 252.8,71.9 250.9,71.9 250.9,71.2 253.5,71.2 253.5,71.7 252,75 	"/>
	<path id="XMLID_128_" class="st2" d="M253.9,74.3c0.2,0,0.4,0.2,0.4,0.4c0,0.2-0.2,0.4-0.4,0.4c-0.2,0-0.4-0.2-0.4-0.4
		C253.5,74.5,253.7,74.3,253.9,74.3z"/>
	<path id="XMLID_127_" class="st2" d="M256,71.8c-0.3,0-0.5,0-1,0.2v-0.7c0.3-0.1,0.6-0.2,1-0.2c1.1,0,1.2,0.6,1.2,1.1
		c0,0.3-0.2,0.6-0.5,1l-1.1,1.2h1.6V75h-2.5v-0.5l1.6-2c0.1-0.1,0.2-0.2,0.2-0.4C256.6,72,256.5,71.8,256,71.8z"/>
	<path id="XMLID_405_" class="st2" d="M257.9,73.1c0-1.6,0.3-2,1.3-2c0.9,0,1.3,0.4,1.3,2c0,1.6-0.3,2-1.3,2
		C258.2,75.1,257.9,74.7,257.9,73.1z M258.5,73.1c0,1.1,0.1,1.4,0.6,1.4c0.5,0,0.6-0.3,0.6-1.4c0-1.1-0.1-1.4-0.6-1.4
		C258.7,71.8,258.5,72.1,258.5,73.1z"/>
	<polygon id="XMLID_124_" class="st2" points="261,74.4 261.7,74.4 261.7,71.8 261,71.9 261,71.4 262.1,71.2 262.4,71.2 262.4,74.4 
		263.2,74.4 263.2,75 261,75 	"/>
	<path id="XMLID_123_" class="st2" d="M263.8,72v-0.7c0.2-0.1,0.8-0.1,1.1-0.1c1.1,0,1.3,0.5,1.3,1.1c0,0.2-0.1,0.6-0.3,0.7
		c0.3,0.2,0.4,0.6,0.4,0.9c0,0.6-0.3,1.2-1.4,1.2c-0.4,0-0.9-0.1-1.1-0.2v-0.7c0.3,0.1,0.7,0.2,1.1,0.2c0.6,0,0.7-0.3,0.7-0.6
		c0-0.3-0.1-0.5-0.6-0.5h-0.7v-0.7h0.7c0.4,0,0.5-0.3,0.5-0.5c0-0.2-0.1-0.5-0.6-0.5C264.6,71.8,264.1,71.9,263.8,72z"/>
</g>
<g id="XMLID_387_">
	<rect id="XMLID_122_" x="-713.2" y="33.2" class="st0" width="98.1" height="63.4"/>
	<path id="XMLID_388_" class="st1" d="M-665.5,44.2l-1.8-1.5h2.5l0.7-2.2l0.9,2.2h2.3l-1.8,1.5l0.7,2.2l-2-1.3l-1.8,1.3L-665.5,44.2
		L-665.5,44.2z M-654.8,46.9l-1.8-1.5h2.5l0.7-2.2l0.9,2.2l2.3,0.2l-1.8,1.3l0.7,2.4l-2-1.5l-2,1.3L-654.8,46.9L-654.8,46.9z
		 M-647.6,54.6l-1.8-1.3l2.3-0.2l0.9-2.2l0.7,2.2l2.5,0.2l-1.8,1.3l0.7,2.4l-2-1.3l-2,1.3L-647.6,54.6L-647.6,54.6z M-643.5,65.2
		l-2-1.3l2.5-0.2l0.9-2.2l0.7,2.2l2.5,0.2l-1.8,1.3l0.7,2.4l-2-1.3l-2,1.3L-643.5,65.2L-643.5,65.2z M-647.1,75.8l-1.8-1.5h2.5
		l0.7-2.4l0.9,2.4h2.3l-1.8,1.5l0.7,2.2l-2-1.3l-1.8,1.3L-647.1,75.8L-647.1,75.8z M-654.2,83.3l-2-1.3l2.5-0.2l0.9-2.2l0.7,2.2
		l2.5,0.2l-1.8,1.3l0.7,2.4l-2-1.3l-2,1.3L-654.2,83.3L-654.2,83.3z M-665.3,86.9l-2-1.5h2.5l0.9-2.4l0.7,2.4h2.5l-2,1.5l0.9,2.2
		l-2-1.3l-2,1.3L-665.3,86.9L-665.3,86.9z M-676.4,83.8l-1.8-1.5h2.5l0.7-2.4l0.9,2.4h2.3l-1.8,1.5l0.7,2.2l-2-1.3l-1.8,1.3
		L-676.4,83.8L-676.4,83.8z M-683.4,76.3l-2-1.5h2.5l0.7-2.4l0.9,2.4h2.5l-2,1.5l0.7,2.2l-2-1.3l-1.8,1.3L-683.4,76.3L-683.4,76.3z
		 M-687.5,65.4l-1.8-1.3l2.5-0.2l0.7-2.2l0.9,2.2l2.3,0.2l-1.8,1.3l0.7,2.2l-2-1.3l-1.8,1.3L-687.5,65.4L-687.5,65.4z M-683.7,55.1
		l-1.8-1.3l2.3-0.2l0.9-2.2l0.7,2.2l2.5,0.2l-1.8,1.3l0.7,2.4l-2-1.3l-2,1.3L-683.7,55.1L-683.7,55.1z M-676.6,47.1l-1.8-1.3
		l2.3-0.2l0.9-2.2l0.9,2.2l2.3,0.2l-1.8,1.3l0.7,2.4l-2-1.3l-2,1.3L-676.6,47.1z"/>
</g>
<g id="XMLID_356_">
	<path id="XMLID_109_" class="st2" d="M-404.3,45.4v22.4c13.7,3.3,26.6-17,37.7-12.9v-4.2C-375.3,43.9-394.7,43.1-404.3,45.4z"/>
	<path id="XMLID_108_" class="st2" d="M-366.6,84.3V61.9c-13.7-3.3-26.6,17-37.7,12.9v4.2C-395.7,85.9-376.2,86.7-366.6,84.3z"/>
	<rect id="XMLID_107_" x="-359.1" y="53.7" class="st0" width="2" height="16.8"/>
	<path id="XMLID_106_" class="st0" d="M-353,70.5V53.8h2.3l5.6,10.7c0.4,0.7,0.9,1.9,1.6,3.5c-0.1-1-0.1-2.7-0.2-5.1l-0.1-9.1h2
		v16.7h-2.1l-5.4-10.3c-0.9-1.8-1.6-3.1-1.9-4c0.1,1.5,0.2,3.1,0.2,4.6l0.1,9.7H-353z"/>
	<polygon id="XMLID_105_" class="st0" points="-330.8,70.5 -330.8,53.7 -328.8,53.7 -328.8,68.8 -322.1,68.8 -322.4,70.5 	"/>
	<polygon id="XMLID_104_" class="st0" points="-319.6,70.5 -319.6,53.9 -310.4,53.9 -310.7,55.5 -317.6,55.5 -317.6,60.9 
		-311.8,60.9 -311.8,62.7 -317.6,62.7 -317.6,68.8 -310.2,68.8 -310.2,70.5 	"/>
	<path id="XMLID_103_" class="st0" d="M-307.3,70.5V53.8h2.3l5.6,10.7c0.4,0.7,0.9,1.9,1.6,3.5c-0.1-1-0.1-2.7-0.2-5.1l-0.1-9.1h2
		v16.7h-2.1l-5.4-10.3c-0.9-1.8-1.6-3.1-1.9-4c0.1,1.5,0.2,3.1,0.2,4.6l0.1,9.7H-307.3z"/>
	<polygon id="XMLID_102_" class="st0" points="-293.8,55.4 -293.8,53.7 -282.7,53.7 -282.8,55.4 -287.4,55.4 -287.4,70.5 
		-289.3,70.5 -289.3,55.4 	"/>
	<polygon id="XMLID_101_" class="st0" points="-280.1,70.5 -280.1,53.9 -271,53.9 -271.2,55.5 -278.1,55.5 -278.1,60.9 -272.4,60.9 
		-272.4,62.7 -278.1,62.7 -278.1,68.8 -270.7,68.8 -270.7,70.5 	"/>
	<path id="XMLID_100_" class="st0" d="M-267.6,67.7v-14h2v13.9c0,0.6,0,1.2,0,1.8c0,0.8-0.2,1.5-0.6,2.1c-0.5,1-1.5,1.7-2.8,2.2
		l-1-1.2c1-0.4,1.6-0.9,2-1.6C-267.7,70.3-267.6,69.2-267.6,67.7z"/>
	<path id="XMLID_374_" class="st0" d="M-262.3,62.1c0-2.7,0.6-4.8,1.8-6.3c1.2-1.5,2.8-2.3,4.9-2.3c2.3,0,4.1,0.9,5.3,2.7
		c1,1.5,1.5,3.6,1.5,6.2c0,3.1-0.8,5.3-2.4,6.8c-1.2,1.1-2.6,1.6-4.3,1.6c-1.9,0-3.5-0.7-4.8-2.1C-261.6,67.2-262.3,65-262.3,62.1z
		 M-251.8,57.4c-0.7-1.5-2-2.3-3.7-2.3c-0.8,0-1.5,0.2-2.1,0.5c-0.6,0.4-1.1,0.8-1.5,1.4c-0.6,1.1-0.9,2.6-0.9,4.6
		c0,2.7,0.4,4.6,1.1,5.8c0.3,0.5,0.8,1,1.5,1.3c0.7,0.3,1.4,0.5,2.1,0.5c1.3,0,2.4-0.5,3.1-1.4c0.8-1,1.2-2.8,1.2-5.2
		C-251,60.3-251.3,58.5-251.8,57.4z"/>
	<path id="XMLID_97_" class="st0" d="M-360.2,84.3h4.3v-1.1h-2.9l2.4-3c0.2-0.2,0.3-0.4,0.3-0.6c0.1-0.2,0.1-0.4,0.1-0.7
		c0-0.6-0.2-1.1-0.6-1.5c-0.4-0.4-0.9-0.6-1.6-0.6c-0.6,0-1.1,0.2-1.5,0.6c-0.4,0.4-0.6,0.9-0.6,1.5h1.1c0-0.3,0.1-0.6,0.3-0.8
		c0.2-0.2,0.4-0.3,0.7-0.3c0.3,0,0.6,0.1,0.8,0.3c0.2,0.2,0.3,0.5,0.3,0.7c0,0.1,0,0.2,0,0.3c0,0.1-0.1,0.3-0.2,0.4l-2.9,3.7V84.3z"
		/>
	<path id="XMLID_370_" class="st0" d="M-351.9,82.2c0,0.4-0.1,0.6-0.3,0.8c-0.2,0.2-0.4,0.3-0.8,0.3c-0.3,0-0.6-0.1-0.8-0.3
		c-0.2-0.2-0.3-0.5-0.3-0.8V79c0-0.4,0.1-0.6,0.3-0.8c0.2-0.2,0.4-0.3,0.8-0.3c0.3,0,0.6,0.1,0.8,0.3c0.2,0.2,0.3,0.5,0.3,0.8V82.2z
		 M-355.1,82.2c0,0.5,0.1,0.9,0.3,1.2c0.2,0.3,0.5,0.6,0.8,0.7c0.3,0.2,0.7,0.3,1,0.3c0.4,0,0.7-0.1,1-0.3c0.3-0.2,0.6-0.4,0.8-0.7
		c0.2-0.3,0.3-0.7,0.3-1.2v-3.3c0-0.5-0.1-0.9-0.3-1.2c-0.2-0.3-0.5-0.6-0.8-0.7c-0.3-0.2-0.7-0.3-1-0.3c-0.4,0-0.7,0.1-1,0.3
		c-0.3,0.2-0.6,0.4-0.8,0.7c-0.2,0.3-0.3,0.7-0.3,1.2V82.2z"/>
	<path id="XMLID_367_" class="st0" d="M-346.8,82.2c0,0.4-0.1,0.6-0.3,0.8c-0.2,0.2-0.4,0.3-0.8,0.3c-0.3,0-0.6-0.1-0.8-0.3
		c-0.2-0.2-0.3-0.5-0.3-0.8V79c0-0.4,0.1-0.6,0.3-0.8c0.2-0.2,0.4-0.3,0.8-0.3c0.3,0,0.6,0.1,0.8,0.3c0.2,0.2,0.3,0.5,0.3,0.8V82.2z
		 M-350,82.2c0,0.5,0.1,0.9,0.3,1.2c0.2,0.3,0.5,0.6,0.8,0.7c0.3,0.2,0.7,0.3,1,0.3c0.4,0,0.7-0.1,1-0.3c0.3-0.2,0.6-0.4,0.8-0.7
		c0.2-0.3,0.3-0.7,0.3-1.2v-3.3c0-0.5-0.1-0.9-0.3-1.2c-0.2-0.3-0.5-0.6-0.8-0.7c-0.3-0.2-0.7-0.3-1-0.3c-0.4,0-0.7,0.1-1,0.3
		c-0.3,0.2-0.6,0.4-0.8,0.7c-0.2,0.3-0.3,0.7-0.3,1.2V82.2z"/>
	<polygon id="XMLID_92_" class="st0" points="-344.8,77.9 -341.8,77.9 -344.3,84.3 -343.1,84.3 -340.6,77.9 -340.6,76.8 
		-344.8,76.8 	"/>
	<path id="XMLID_91_" class="st0" d="M-340.1,83.7c0-0.2,0.1-0.4,0.2-0.5c0.1-0.1,0.3-0.2,0.5-0.2c0.2,0,0.4,0.1,0.5,0.2
		c0.1,0.1,0.2,0.3,0.2,0.5c0,0.2-0.1,0.4-0.2,0.5c-0.1,0.1-0.3,0.2-0.5,0.2c-0.2,0-0.4-0.1-0.5-0.2C-340,84.1-340.1,83.9-340.1,83.7
		z"/>
	<path id="XMLID_90_" class="st0" d="M-337.7,84.3h4.3v-1.1h-2.9l2.4-3c0.2-0.2,0.3-0.4,0.3-0.6c0.1-0.2,0.1-0.4,0.1-0.7
		c0-0.6-0.2-1.1-0.6-1.5c-0.4-0.4-0.9-0.6-1.6-0.6c-0.6,0-1.1,0.2-1.5,0.6c-0.4,0.4-0.6,0.9-0.6,1.5h1.1c0-0.3,0.1-0.6,0.4-0.8
		c0.2-0.2,0.4-0.3,0.7-0.3c0.3,0,0.6,0.1,0.8,0.3c0.2,0.2,0.3,0.5,0.3,0.7c0,0.1,0,0.2-0.1,0.3c0,0.1-0.1,0.3-0.2,0.4l-2.9,3.7V84.3
		z"/>
	<path id="XMLID_361_" class="st0" d="M-329.4,82.2c0,0.4-0.1,0.6-0.3,0.8c-0.2,0.2-0.4,0.3-0.8,0.3c-0.3,0-0.6-0.1-0.8-0.3
		c-0.2-0.2-0.3-0.5-0.3-0.8V79c0-0.4,0.1-0.6,0.3-0.8c0.2-0.2,0.4-0.3,0.8-0.3c0.3,0,0.6,0.1,0.8,0.3c0.2,0.2,0.3,0.5,0.3,0.8V82.2z
		 M-332.6,82.2c0,0.5,0.1,0.9,0.3,1.2c0.2,0.3,0.5,0.6,0.8,0.7c0.3,0.2,0.7,0.3,1,0.3c0.4,0,0.7-0.1,1-0.3c0.3-0.2,0.6-0.4,0.8-0.7
		c0.2-0.3,0.3-0.7,0.3-1.2v-3.3c0-0.5-0.1-0.9-0.3-1.2c-0.2-0.3-0.5-0.6-0.8-0.7c-0.3-0.2-0.7-0.3-1-0.3c-0.4,0-0.7,0.1-1,0.3
		c-0.3,0.2-0.6,0.4-0.8,0.7c-0.2,0.3-0.3,0.7-0.3,1.2V82.2z"/>
	<polygon id="XMLID_87_" class="st0" points="-325.9,84.3 -324.8,84.3 -324.8,76.8 -325.9,76.8 -327.2,77.9 -327.2,79 -325.9,78.1 	
		"/>
	<path id="XMLID_86_" class="st0" d="M-321.1,80.9h0.5c0.3,0,0.6,0.1,0.8,0.3c0.2,0.2,0.3,0.5,0.3,0.9c0,0.4-0.1,0.7-0.3,0.9
		c-0.2,0.2-0.5,0.3-0.8,0.3c-0.3,0-0.5-0.1-0.7-0.2c-0.2-0.2-0.3-0.4-0.4-0.6h-1.1c0.1,0.6,0.4,1.1,0.8,1.4c0.4,0.3,0.8,0.5,1.4,0.5
		c0.7,0,1.2-0.2,1.6-0.6c0.4-0.4,0.6-1,0.7-1.7c0-0.3-0.1-0.6-0.2-0.9c-0.1-0.3-0.4-0.5-0.7-0.7c0.3-0.2,0.5-0.4,0.6-0.7
		c0.1-0.3,0.2-0.5,0.2-0.8c0-0.4-0.1-0.7-0.3-1c-0.2-0.3-0.4-0.6-0.8-0.8c-0.3-0.2-0.7-0.3-1.2-0.3c-0.5,0-1,0.2-1.4,0.6
		c-0.4,0.4-0.6,0.8-0.7,1.4h1.1c0.1-0.3,0.2-0.5,0.4-0.7c0.2-0.1,0.4-0.2,0.6-0.2c0.3,0,0.6,0.1,0.8,0.3c0.2,0.2,0.3,0.5,0.3,0.8
		c0,0.3-0.1,0.6-0.3,0.8c-0.2,0.2-0.5,0.3-0.8,0.3h-0.4V80.9z"/>
	<rect id="XMLID_85_" x="-327.3" y="83.2" class="st0" width="3.8" height="1.1"/>
	<polygon id="XMLID_84_" class="st0" points="-339.8,63.7 -337.2,63.7 -339.8,55.5 -339.8,53.7 -338.4,53.7 -332.8,70.5 
		-335.1,70.5 -336.7,65.4 -339.8,65.4 	"/>
</g>
<g id="XMLID_247_">
	<path id="XMLID_350_" class="st2" d="M-532.2,51.8c0.3,0,1.9,0,1.9,0c4.5,0,8.1-3.7,8.1-8.1c0-4.5-3.7-8.1-8.1-8.1h-18.9
		c-1,0-1.8,0.8-1.8,1.8c0,0,0,18.9,0,26.3l-5-5c2-2.5,3.2-5.7,3.2-9.2c0-8.2-6.7-14.9-14.9-14.9c-8.2,0-14.9,6.7-14.9,14.9
		c0,8.2,6.7,14.9,14.9,14.9c3.5,0,6.6-1.2,9.2-3.2l5,5c-7.4,0-26.3,0-26.3,0c-1,0-1.8,0.8-1.8,1.8v25.3c0,1,0.8,1.8,1.8,1.8h30.7
		c1,0,1.8-0.8,1.8-1.8c0,0,0-14.9,0-20.9c4.8,4.8,22.2,22.2,22.2,22.2c0.5,0.5,1.3,0.7,2,0.4c0.7-0.3,1.1-0.9,1.1-1.7V62.6
		c0-0.5-0.2-0.9-0.5-1.3C-522.7,61.3-528.7,55.3-532.2,51.8z M-547.4,39.2c3,0,17.1,0,17.1,0c2.5,0,4.5,2,4.5,4.5s-2,4.5-4.5,4.5
		c0,0-14.1,0-17.1,0C-547.4,44.1-547.4,40.2-547.4,39.2z M-567.8,60.8c-6.2,0-11.3-5.1-11.3-11.3c0-6.2,5.1-11.3,11.3-11.3
		s11.3,5.1,11.3,11.3c0,2.4-0.8,4.7-2.1,6.6l-7.4-7.4c-0.7-0.7-1.9-0.7-2.6,0c-0.7,0.7-0.7,1.9,0,2.6l7.4,7.4
		C-563.1,60-565.4,60.8-567.8,60.8z M-551.1,91.5c-3,0-24.1,0-27.1,0c0-1.3,0-5,0-9h18.9c1,0,1.8-0.8,1.8-1.8c0-1-0.8-1.8-1.8-1.8
		h-18.9c0-4,0-7.7,0-9c3,0,24.1,0,27.1,0C-551.1,72.8-551.1,88.6-551.1,91.5z M-525.8,88.9c-4.7-4.7-20.7-20.7-21.6-21.6
		c0-0.7,0-7.8,0-15.5c1.7,0,5.3,0,10.1,0c0.9,0.9,10.6,10.6,11.6,11.6C-525.8,64.6-525.8,82.7-525.8,88.9z"/>
	<path id="XMLID_347_" class="st2" d="M-509.8,42.1c0,2.5-0.4,4.2-2.7,4.3v0l3.9,0.9v0.4l-5.3-1.4c-1.8-0.5-2-2-2-4.2
		c0-2.6,0.4-4.3,3.1-4.3C-510.2,37.8-509.8,39.5-509.8,42.1z M-510.2,42.1c0-2.6-0.4-4-2.7-4c-2.3,0-2.7,1.4-2.7,4
		c0,2.6,0.4,4,2.7,4C-510.6,46.1-510.2,44.7-510.2,42.1z"/>
	<path id="XMLID_76_" class="st2" d="M-505.3,46.1c1.7,0,2.6-0.5,2.6-2.5v-5.7h0.4v5.8c0,2.3-1.3,2.8-2.9,2.8
		c-1.6,0-2.9-0.5-2.9-2.8v-5.8h0.4v5.7C-507.8,45.6-506.9,46.1-505.3,46.1z"/>
	<path id="XMLID_343_" class="st2" d="M-495.3,46.4l-0.9-2.5h-3.7l-0.8,2.5h-0.4l3-8.6h0.2l3,8.6H-495.3z M-499.8,43.6h3.5l-1.8-5.2
		L-499.8,43.6z"/>
	<path id="XMLID_340_" class="st2" d="M-493.4,46.4v-8.5h2.5c2.7,0,3.3,1.6,3.3,4.3c0,2.7-0.6,4.3-3.3,4.3H-493.4z M-493,46h2
		c2.4,0,2.9-1.3,2.9-3.9c0-2.6-0.6-3.9-2.9-3.9h-2V46z"/>
	<path id="XMLID_337_" class="st2" d="M-485.5,46.4h-0.4v-8.5h2.7c2.1,0,2.6,0.8,2.6,2.3c0,1.2-0.4,2-1.8,2.2l2.1,4h-0.4l-2.1-3.9
		c-0.1,0-0.3,0-0.4,0h-2.3V46.4z M-483.1,42.1c1.8,0,2.1-0.9,2.1-2c0-1.1-0.3-2-2.1-2h-2.5v3.9H-483.1z"/>
	<path id="XMLID_334_" class="st2" d="M-472.9,42.1c0,2.6-0.4,4.3-3.1,4.3c-2.7,0-3.1-1.7-3.1-4.3c0-2.6,0.4-4.3,3.1-4.3
		C-473.3,37.8-472.9,39.5-472.9,42.1z M-473.3,42.1c0-2.6-0.4-4-2.7-4c-2.3,0-2.7,1.4-2.7,4c0,2.6,0.4,4,2.7,4
		C-473.7,46.1-473.3,44.7-473.3,42.1z"/>
	<path id="XMLID_331_" class="st2" d="M-515.9,59.6v-8.5h2.5c2.7,0,3.3,1.6,3.3,4.3c0,2.7-0.6,4.3-3.3,4.3H-515.9z M-515.5,59.3h2
		c2.4,0,2.9-1.3,2.9-3.9s-0.6-3.9-2.9-3.9h-2V59.3z"/>
	<polygon id="XMLID_65_" class="st2" points="-504.1,55.3 -508,55.3 -508,59.3 -503.7,59.3 -503.7,59.6 -508.4,59.6 -508.4,51.1 
		-503.7,51.1 -503.7,51.4 -508,51.4 -508,55 -504.1,55 	"/>
	<path id="XMLID_327_" class="st2" d="M-499.3,59.6h-0.4v-8.5h2.7c2.1,0,2.6,0.8,2.6,2.3c0,1.2-0.4,2-1.8,2.2l2.1,4h-0.4l-2.1-3.9
		c-0.1,0-0.3,0-0.4,0h-2.3V59.6z M-496.8,55.3c1.8,0,2.1-0.9,2.1-2c0-1.1-0.3-2-2.1-2h-2.5v3.9H-496.8z"/>
	<polygon id="XMLID_62_" class="st2" points="-488.3,55.3 -492.2,55.3 -492.2,59.3 -487.9,59.3 -487.9,59.6 -492.6,59.6 
		-492.6,51.1 -487.9,51.1 -487.9,51.4 -492.2,51.4 -492.2,55 -488.3,55 	"/>
	<polygon id="XMLID_61_" class="st2" points="-482,55.3 -485.8,55.3 -485.8,59.6 -486.2,59.6 -486.2,51.1 -481.6,51.1 -481.6,51.4 
		-485.8,51.4 -485.8,55 -482,55 	"/>
	<polygon id="XMLID_60_" class="st2" points="-475.7,55.3 -479.6,55.3 -479.6,59.3 -475.2,59.3 -475.2,59.6 -480,59.6 -480,51.1 
		-475.2,51.1 -475.2,51.4 -479.6,51.4 -479.6,55 -475.7,55 	"/>
	<path id="XMLID_321_" class="st2" d="M-473.2,59.6h-0.4v-8.5h2.7c2.1,0,2.6,0.8,2.6,2.3c0,1.2-0.4,2-1.8,2.2l2.1,4h-0.4l-2.1-3.9
		c-0.1,0-0.3,0-0.4,0h-2.3V59.6z M-470.7,55.3c1.8,0,2.1-0.9,2.1-2c0-1.1-0.3-2-2.1-2h-2.5v3.9H-470.7z"/>
	<path id="XMLID_318_" class="st2" d="M-462.2,55.3h-3.9v3.9h4.4v0.3h-4.7v-8.5h4.7v0.3h-4.4V55h3.9V55.3z M-462.3,50.2l-1.6-2h-0.5
		l-1.6,2h0.3l1.6-1.6l1.6,1.6H-462.3z"/>
	<polygon id="XMLID_55_" class="st2" points="-454.6,59.6 -459.8,51.9 -459.7,59.6 -460.1,59.6 -460.1,51.1 -459.9,51.1 
		-454.7,58.8 -454.8,51.1 -454.4,51.1 -454.4,59.6 	"/>
	<path id="XMLID_54_" class="st2" d="M-452.7,55.3c0-2.7,0.8-4.3,3.3-4.3c1,0,1.6,0.1,2.1,0.3v0.4c-0.7-0.3-1.3-0.4-2.1-0.4
		c-2.1,0-2.9,1.3-2.9,4c0,2.7,0.8,4,2.9,4c0.8,0,1.4-0.1,2.1-0.4v0.4c-0.5,0.2-1.1,0.3-2.1,0.3C-451.9,59.7-452.7,58.1-452.7,55.3z"
		/>
	<rect id="XMLID_53_" x="-445.5" y="51.1" class="st2" width="0.4" height="8.5"/>
	<path id="XMLID_312_" class="st2" d="M-437.6,59.6l-0.9-2.5h-3.7l-0.8,2.5h-0.4l3-8.6h0.2l3,8.6H-437.6z M-442.1,56.8h3.5l-1.8-5.2
		L-442.1,56.8z"/>
	<polygon id="XMLID_50_" class="st2" points="-511.6,68.6 -515.5,68.6 -515.5,72.5 -511.2,72.5 -511.2,72.8 -515.9,72.8 
		-515.9,64.3 -511.2,64.3 -511.2,64.7 -515.5,64.7 -515.5,68.3 -511.6,68.3 	"/>
	<path id="XMLID_49_" class="st2" d="M-506.8,64.3c1,0,1.6,0.1,2.1,0.3V65c-0.7-0.3-1.3-0.4-2.1-0.4c-1.9,0-2.4,0.9-2.4,1.9
		c0,1.4,0.6,1.6,2.4,1.8c1.8,0.2,2.6,0.4,2.6,2.2c0,1.1-0.6,2.4-3.1,2.4c-0.7,0-1.7-0.2-2.3-0.4v-0.3c0.5,0.2,1.2,0.4,2.3,0.4
		c2.1,0,2.7-0.9,2.7-2.1c0-1.4-0.4-1.7-2.3-1.9c-1.9-0.2-2.6-0.5-2.6-2.1C-509.6,65.4-509.1,64.3-506.8,64.3z"/>
	<polygon id="XMLID_48_" class="st2" points="-500.3,64.6 -500.3,72.8 -500.6,72.8 -500.6,64.6 -503.1,64.6 -503.1,64.3 
		-497.8,64.3 -497.8,64.6 	"/>
	<path id="XMLID_306_" class="st2" d="M-495.9,72.8h-0.4v-8.5h2.7c2.1,0,2.6,0.8,2.6,2.3c0,1.2-0.4,2-1.8,2.2l2.1,4h-0.4l-2.1-3.9
		c-0.1,0-0.3,0-0.4,0h-2.3V72.8z M-493.4,68.6c1.8,0,2.1-0.9,2.1-2c0-1.1-0.3-2-2.1-2h-2.5v3.9H-493.4z"/>
	<path id="XMLID_303_" class="st2" d="M-483.6,72.8l-0.9-2.5h-3.7l-0.8,2.5h-0.4l3-8.6h0.2l3,8.6H-483.6z M-488.1,70.1h3.5l-1.8-5.2
		L-488.1,70.1z"/>
	<polygon id="XMLID_43_" class="st2" points="-480.3,64.6 -480.3,72.8 -480.7,72.8 -480.7,64.6 -483.1,64.6 -483.1,64.3 
		-477.8,64.3 -477.8,64.6 	"/>
	<path id="XMLID_299_" class="st2" d="M-472,68.6h-3.9v3.9h4.4v0.3h-4.7v-8.5h4.7v0.3h-4.4v3.6h3.9V68.6z M-474,63.4l1.2-2h0.6
		l-1.5,2H-474z"/>
	<path id="XMLID_40_" class="st2" d="M-466.9,72.6c0.7,0,1.6-0.1,2.1-0.4v-3.3h-1.8v-0.3h2.2v3.9c-0.6,0.2-1.4,0.4-2.5,0.4
		c-2.5,0-3.3-1.6-3.3-4.3c0-2.7,0.8-4.3,3.3-4.3c1.1,0,1.8,0.2,2.3,0.4V65c-0.7-0.3-1.4-0.4-2.3-0.4c-2.1,0-2.9,1.3-2.9,4
		C-469.8,71.2-469,72.6-466.9,72.6z"/>
	<rect id="XMLID_39_" x="-462.4" y="64.3" class="st2" width="0.4" height="8.5"/>
	<path id="XMLID_38_" class="st2" d="M-460.2,68.6c0-2.7,0.8-4.3,3.3-4.3c1,0,1.6,0.1,2.1,0.3V65c-0.7-0.3-1.3-0.4-2.1-0.4
		c-2.1,0-2.9,1.3-2.9,4c0,2.7,0.8,4,2.9,4c0.8,0,1.4-0.1,2.1-0.4v0.4c-0.5,0.2-1.1,0.3-2.1,0.3C-459.4,72.9-460.2,71.3-460.2,68.6z"
		/>
	<path id="XMLID_293_" class="st2" d="M-447.4,68.6c0,2.6-0.4,4.3-3.1,4.3c-2.7,0-3.1-1.7-3.1-4.3s0.4-4.3,3.1-4.3
		C-447.8,64.3-447.4,66-447.4,68.6z M-447.8,68.6c0-2.6-0.4-4-2.7-4c-2.3,0-2.7,1.4-2.7,4c0,2.6,0.4,4,2.7,4
		C-448.2,72.6-447.8,71.2-447.8,68.6z"/>
	<polygon id="XMLID_35_" class="st2" points="-510.4,86.1 -515.5,78.4 -515.5,86.1 -515.9,86.1 -515.9,77.6 -515.7,77.6 
		-510.5,85.3 -510.5,77.6 -510.2,77.6 -510.2,86.1 	"/>
	<path id="XMLID_289_" class="st2" d="M-502.8,86.1l-0.9-2.5h-3.7l-0.8,2.5h-0.4l3-8.6h0.2l3,8.6H-502.8z M-507.3,83.3h3.5l-1.8-5.2
		L-507.3,83.3z"/>
	<path id="XMLID_32_" class="st2" d="M-501.4,81.8c0-2.7,0.8-4.3,3.3-4.3c1,0,1.6,0.1,2.1,0.3v0.4c-0.7-0.3-1.3-0.4-2.1-0.4
		c-2.1,0-2.9,1.3-2.9,4c0,2.7,0.8,4,2.9,4c0.8,0,1.4-0.1,2.1-0.4v0.4c-0.5,0.2-1.1,0.3-2.1,0.3C-500.6,86.1-501.4,84.6-501.4,81.8z"
		/>
	<rect id="XMLID_31_" x="-494.2" y="77.6" class="st2" width="0.4" height="8.5"/>
	<path id="XMLID_284_" class="st2" d="M-485.8,81.8c0,2.6-0.4,4.3-3.1,4.3c-2.7,0-3.1-1.7-3.1-4.3c0-2.6,0.4-4.3,3.1-4.3
		C-486.2,77.5-485.8,79.2-485.8,81.8z M-486.1,81.8c0-2.6-0.4-4-2.7-4c-2.3,0-2.7,1.4-2.7,4c0,2.6,0.4,4,2.7,4
		C-486.5,85.8-486.1,84.4-486.1,81.8z"/>
	<polygon id="XMLID_28_" class="st2" points="-478.5,86.1 -483.6,78.4 -483.6,86.1 -484,86.1 -484,77.6 -483.8,77.6 -478.6,85.3 
		-478.6,77.6 -478.3,77.6 -478.3,86.1 	"/>
	<path id="XMLID_280_" class="st2" d="M-470.9,86.1l-0.9-2.5h-3.7l-0.8,2.5h-0.4l3-8.6h0.2l3,8.6H-470.9z M-475.4,83.3h3.5l-1.8-5.2
		L-475.4,83.3z"/>
	<polygon id="XMLID_25_" class="st2" points="-468.7,85.7 -464.5,85.7 -464.5,86.1 -469,86.1 -469,77.6 -468.7,77.6 	"/>
	<path id="XMLID_276_" class="st2" d="M-515.5,94.6h-0.4v-3.8h1.2c1,0,1.3,0.5,1.3,1.1c0,0.6-0.3,1.1-1.3,1.1h-0.8V94.6z
		 M-515.5,92.8h0.8c0.7,0,0.9-0.4,0.9-0.8c0-0.4-0.1-0.8-0.9-0.8h-0.8V92.8z"/>
	<path id="XMLID_273_" class="st2" d="M-511.3,94.7c-1.2,0-1.4-1-1.4-2c0-1,0.2-2,1.4-2c1.3,0,1.4,1,1.4,2
		C-509.9,93.7-510,94.7-511.3,94.7z M-511.3,91.1c-0.9,0-1,0.7-1,1.6c0,0.9,0.1,1.6,1,1.6c0.9,0,1-0.7,1-1.6
		C-510.3,91.8-510.4,91.1-511.3,91.1z"/>
	<path id="XMLID_270_" class="st2" d="M-508.6,94.6h-0.4v-3.8h1.2c0.9,0,1.2,0.4,1.2,1.1c0,0.5-0.2,0.9-0.7,1l0.9,1.7h-0.5l-0.8-1.7
		c-0.1,0-0.1,0-0.2,0h-0.8V94.6z M-508.6,92.6h0.9c0.7,0,0.8-0.3,0.8-0.7c0-0.4-0.1-0.7-0.8-0.7h-0.9V92.6z"/>
	<polygon id="XMLID_18_" class="st2" points="-504.5,91.1 -504.5,94.6 -504.8,94.6 -504.8,91.1 -505.9,91.1 -505.9,90.8 
		-503.4,90.8 -503.4,91.1 	"/>
	<path id="XMLID_17_" class="st2" d="M-500.3,93.4v-2.6h0.4v2.6c0,1.1-0.9,1.2-1.3,1.2c-0.5,0-1.3-0.2-1.3-1.2v-2.6h0.4v2.6
		c0,0.9,0.6,1,1,1C-501,94.3-500.3,94.3-500.3,93.4z"/>
	<path id="XMLID_16_" class="st2" d="M-497.6,94.7c-1.1,0-1.5-0.9-1.5-2c0-1.1,0.4-2,1.5-2c0.5,0,0.9,0.1,1.1,0.2v0.4
		c-0.4-0.2-0.7-0.2-1.1-0.2c-0.8,0-1.1,0.7-1.1,1.6c0,0.9,0.3,1.6,1.1,1.6c0.3,0,0.6,0,0.8-0.1v-1.3h-0.8v-0.3h1.1v1.8
		C-496.7,94.6-497.1,94.7-497.6,94.7z"/>
	<path id="XMLID_264_" class="st2" d="M-493.1,94.6l-0.4-1.1h-1.5l-0.4,1.1h-0.4l1.3-3.9h0.3l1.3,3.9H-493.1z M-494.8,93.2h1.3
		l-0.6-1.9L-494.8,93.2z"/>
	<polygon id="XMLID_13_" class="st2" points="-491.6,94.3 -489.9,94.3 -489.9,94.6 -492,94.6 -492,90.8 -491.6,90.8 	"/>
	<path id="XMLID_12_" class="st2" d="M-488,91.4c-0.3,0-0.5,0-1,0.2v-0.7c0.3-0.1,0.6-0.2,1-0.2c1.1,0,1.2,0.6,1.2,1.1
		c0,0.3-0.2,0.6-0.5,1l-1.1,1.2h1.6v0.7h-2.5v-0.5l1.6-2c0.1-0.1,0.2-0.2,0.2-0.4C-487.4,91.6-487.5,91.4-488,91.4z"/>
	<path id="XMLID_259_" class="st2" d="M-486.1,92.7c0-1.6,0.3-2,1.3-2c0.9,0,1.3,0.4,1.3,2c0,1.6-0.3,2-1.3,2
		C-485.8,94.7-486.1,94.3-486.1,92.7z M-485.5,92.7c0,1.1,0.1,1.4,0.6,1.4c0.5,0,0.6-0.3,0.6-1.4c0-1.1-0.1-1.4-0.6-1.4
		C-485.3,91.4-485.5,91.6-485.5,92.7z"/>
	<path id="XMLID_256_" class="st2" d="M-483,92.7c0-1.6,0.3-2,1.3-2c0.9,0,1.3,0.4,1.3,2c0,1.6-0.3,2-1.3,2
		C-482.7,94.7-483,94.3-483,92.7z M-482.3,92.7c0,1.1,0.1,1.4,0.6,1.4c0.5,0,0.6-0.3,0.6-1.4c0-1.1-0.1-1.4-0.6-1.4
		C-482.2,91.4-482.3,91.6-482.3,92.7z"/>
	<polygon id="XMLID_7_" class="st2" points="-479.6,94.6 -478.1,91.4 -480,91.4 -480,90.8 -477.4,90.8 -477.4,91.2 -478.8,94.6 	"/>
	<path id="XMLID_6_" class="st2" d="M-477,93.9c0.2,0,0.4,0.2,0.4,0.4c0,0.2-0.2,0.4-0.4,0.4c-0.2,0-0.4-0.2-0.4-0.4
		C-477.4,94.1-477.2,93.9-477,93.9z"/>
	<path id="XMLID_5_" class="st2" d="M-474.8,91.4c-0.3,0-0.5,0-1,0.2v-0.7c0.3-0.1,0.6-0.2,1-0.2c1.1,0,1.2,0.6,1.2,1.1
		c0,0.3-0.2,0.6-0.5,1l-1.1,1.2h1.6v0.7h-2.5v-0.5l1.6-2c0.1-0.1,0.2-0.2,0.2-0.4C-474.3,91.6-474.4,91.4-474.8,91.4z"/>
	<path id="XMLID_250_" class="st2" d="M-473,92.7c0-1.6,0.3-2,1.3-2c0.9,0,1.3,0.4,1.3,2c0,1.6-0.3,2-1.3,2
		C-472.7,94.7-473,94.3-473,92.7z M-472.3,92.7c0,1.1,0.1,1.4,0.6,1.4c0.5,0,0.6-0.3,0.6-1.4c0-1.1-0.1-1.4-0.6-1.4
		C-472.2,91.4-472.3,91.6-472.3,92.7z"/>
	<polygon id="XMLID_2_" class="st2" points="-469.9,94 -469.1,94 -469.1,91.4 -469.8,91.4 -469.8,91 -468.8,90.7 -468.4,90.7 
		-468.4,94 -467.7,94 -467.7,94.6 -469.9,94.6 	"/>
	<path id="XMLID_1_" class="st2" d="M-467,91.6v-0.7c0.2-0.1,0.8-0.1,1.1-0.1c1.1,0,1.3,0.5,1.3,1.1c0,0.2-0.1,0.6-0.3,0.7
		c0.3,0.2,0.4,0.6,0.4,0.9c0,0.6-0.3,1.2-1.4,1.2c-0.4,0-0.9-0.1-1.1-0.2v-0.7c0.3,0.1,0.7,0.2,1.1,0.2c0.6,0,0.7-0.3,0.7-0.6
		c0-0.3-0.1-0.5-0.6-0.5h-0.7v-0.7h0.7c0.4,0,0.5-0.3,0.5-0.5c0-0.2-0.1-0.5-0.6-0.5C-466.3,91.4-466.8,91.4-467,91.6z"/>
</g>
</svg>
